<svg width="80" height="80" viewBox="0 0 80 80" fill="none" xmlns="http://www.w3.org/2000/svg">
<rect width="80" height="80" rx="40" fill="#800080" fill-opacity="0.27"/>
<path d="M25.1713 19.5879C25.2993 19.3111 25.3334 19 25.2684 18.702C25.2034 18.404 25.0429 18.1354 24.8112 17.937C24.5795 17.7386 24.2894 17.6213 23.9849 17.6029C23.6805 17.5845 23.3784 17.6661 23.1245 17.8351L23.1189 17.8379L23.1105 17.8435L23.0853 17.8603L23.0013 17.9163L22.7157 18.1263C22.3989 18.3664 22.0907 18.6176 21.7917 18.8795C21.0861 19.4955 20.1761 20.4111 19.5293 21.5031C18.964 22.4081 18.5108 23.3784 18.1797 24.3927C17.8437 25.3979 17.6001 26.4871 17.6001 27.3999C17.6001 29.7883 18.4849 31.8239 19.8653 33.0727L19.6861 33.2799C18.9021 34.2431 18.4457 35.4919 18.1601 36.7239C17.6001 39.1599 17.6001 42.0887 17.6001 44.1299V44.1999C17.6001 52.0035 18.6613 56.4303 19.8289 58.9615C20.4169 60.2355 21.0413 61.0475 21.5817 61.5571C21.8533 61.8147 22.0997 61.9911 22.3041 62.1115C22.4234 62.1832 22.5479 62.2459 22.6765 62.2991C22.6765 62.2991 22.9929 62.3999 23.2001 62.3999C23.4073 62.3999 23.7237 62.2991 23.7237 62.2991C23.8523 62.2459 23.9768 62.1832 24.0961 62.1115C24.3563 61.9535 24.5985 61.7676 24.8185 61.5571C25.3589 61.0447 25.9833 60.2355 26.5713 58.9615C27.7389 56.4303 28.8001 52.0035 28.8001 44.1999V44.1299C28.8001 42.0859 28.8001 39.1599 28.2401 36.7239C27.9545 35.4919 27.4981 34.2431 26.7141 33.2799L26.5349 33.0727C27.9153 31.8239 28.8001 29.7883 28.8001 27.3999C28.8001 25.4483 28.4053 24.1071 27.6913 23.0347C27.3736 22.5742 27.0075 22.149 26.5993 21.7663L26.1233 21.3183C25.9525 21.1587 25.7957 21.0131 25.5913 20.8087C25.1713 20.3887 25.1237 20.0527 25.1237 19.8763C25.1226 19.7782 25.1387 19.6806 25.1713 19.5879ZM26.0001 27.3999C26.0001 30.3959 24.2809 31.5971 23.2057 31.5999H23.2001C22.1221 31.5999 20.4001 30.4015 20.4001 27.3999C20.4001 26.9155 20.5457 26.1483 20.8369 25.2803C21.1016 24.4606 21.4675 23.6771 21.9261 22.9479C22.1697 22.5363 22.4861 22.1359 22.8277 21.7691C23.0181 22.1126 23.2794 22.4533 23.6117 22.7911C23.8161 22.9955 24.0821 23.2419 24.3089 23.4547L24.6561 23.7795C24.9501 24.0651 25.1769 24.3143 25.3589 24.5915C25.6949 25.0927 26.0001 25.8515 26.0001 27.3999ZM20.8901 37.3539C21.1309 36.3067 21.4613 35.5339 21.8561 35.0495C22.0097 34.8407 22.2118 34.6724 22.445 34.5593C22.6782 34.4461 22.9354 34.3914 23.1945 34.3999H23.2001C23.7881 34.3999 24.1913 34.6183 24.5441 35.0495C24.9389 35.5339 25.2721 36.3067 25.5101 37.3539C25.9945 39.4483 26.0001 42.0803 26.0001 44.1999C26.0001 51.7963 24.9613 55.7695 24.0289 57.7883C23.7209 58.4519 23.4325 58.8943 23.2001 59.1883C22.8682 58.757 22.5898 58.2869 22.3713 57.7883C21.4389 55.7695 20.4001 51.7963 20.4001 44.1999C20.4001 42.0803 20.4057 39.4483 20.8901 37.3539ZM37.2001 48.3999C35.1981 48.3999 33.2913 47.9799 31.5721 47.2239C31.6094 46.2271 31.6281 45.1911 31.6281 44.1159C33.3241 45.0884 35.2451 45.6001 37.2001 45.5999V39.9999C37.2001 38.5147 37.7901 37.0903 38.8403 36.0401C39.8905 34.9899 41.3149 34.3999 42.8001 34.3999H48.4001C48.4004 32.4112 47.8711 30.4582 46.8666 28.7417C45.8622 27.0252 44.4188 25.6071 42.6848 24.6332C40.9508 23.6593 38.9887 23.1647 37.0003 23.2002C35.0118 23.2357 33.0686 23.8 31.3705 24.8351C31.1959 23.8956 30.8767 22.9888 30.4241 22.1471C32.5556 20.9682 34.9579 20.3658 37.3935 20.3994C39.8292 20.4331 42.2139 21.1016 44.312 22.339C46.4102 23.5764 48.1492 25.3399 49.3572 27.4551C50.5652 29.5703 51.2004 31.9641 51.2001 34.3999H56.8001C58.2853 34.3999 59.7097 34.9899 60.7599 36.0401C61.8101 37.0903 62.4001 38.5147 62.4001 39.9999V53.9999C62.4001 55.4852 61.8101 56.9095 60.7599 57.9597C59.7097 59.0099 58.2853 59.5999 56.8001 59.5999H42.8001C41.3149 59.5999 39.8905 59.0099 38.8403 57.9597C37.7901 56.9095 37.2001 55.4852 37.2001 53.9999V48.3999ZM50.9201 37.1999C50.368 39.8889 49.0391 42.3568 47.098 44.2979C45.157 46.2389 42.6891 47.5678 40.0001 48.1199V53.9999C40.0001 54.7425 40.2951 55.4547 40.8202 55.9798C41.3453 56.5049 42.0575 56.7999 42.8001 56.7999H56.8001C57.5427 56.7999 58.2549 56.5049 58.78 55.9798C59.3051 55.4547 59.6001 54.7425 59.6001 53.9999V39.9999C59.6001 39.2573 59.3051 38.5451 58.78 38.02C58.2549 37.4949 57.5427 37.1999 56.8001 37.1999H50.9201ZM48.0473 37.1999H42.8001C42.0575 37.1999 41.3453 37.4949 40.8202 38.02C40.2951 38.5451 40.0001 39.2573 40.0001 39.9999V45.2471C41.9368 44.7445 43.704 43.7334 45.1188 42.3186C46.5336 40.9038 47.5446 39.1366 48.0473 37.1999Z" fill="#800080"/>
</svg>
