<svg width="80" height="80" viewBox="0 0 80 80" fill="none" xmlns="http://www.w3.org/2000/svg">
<rect width="80" height="80" rx="40" fill="#008000" fill-opacity="0.27"/>
<path d="M21.3333 38.4437L12 33.0001L40 16.6667L68 33.0001V52.8334H63.3333V35.7231L58.6667 38.4437V54.0257L58.1463 54.6674C55.9614 57.376 53.1971 59.5605 50.0568 61.0602C46.9165 62.5599 43.48 63.3366 40 63.3334C36.52 63.3366 33.0835 62.5599 29.9432 61.0602C26.8029 59.5605 24.0386 57.376 21.8537 54.6674L21.3333 54.0257V38.4437ZM26 41.1667V52.3481C27.7499 54.3365 29.9039 55.9286 32.3181 57.0183C34.7323 58.1079 37.3513 58.6699 40 58.6667C42.6487 58.6699 45.2677 58.1079 47.6819 57.0183C50.0961 55.9286 52.2501 54.3365 54 52.3481V41.1667L40 49.3334L26 41.1667ZM21.2633 33.0001L40 43.9317L58.7367 33.0001L40 22.0684L21.2633 33.0001Z" fill="#008000"/>
</svg>
