<svg width="80" height="80" viewBox="0 0 80 80" fill="none" xmlns="http://www.w3.org/2000/svg">
<rect width="80" height="80" rx="40" fill="#FFFF00" fill-opacity="0.27"/>
<g clip-path="url(#clip0_343_1829)">
<path d="M49.8333 19H30C26.134 19 23 22.134 23 26V55.1667C23 59.0327 26.134 62.1667 30 62.1667H49.8333C53.6993 62.1667 56.8333 59.0327 56.8333 55.1667V26C56.8333 22.134 53.6993 19 49.8333 19Z" stroke="#B1B100" stroke-width="1.5" stroke-linecap="round" stroke-linejoin="round"/>
<path d="M46.3332 27.1667H33.4998C32.2112 27.1667 31.1665 28.2114 31.1665 29.5001V33.5834C31.1665 34.8721 32.2112 35.9167 33.4998 35.9167H46.3332C47.6218 35.9167 48.6665 34.8721 48.6665 33.5834V29.5001C48.6665 28.2114 47.6218 27.1667 46.3332 27.1667Z" stroke="#B1B100" stroke-width="1.5" stroke-linecap="round" stroke-linejoin="round"/>
<path d="M31.7495 42.25C32.7619 42.25 33.5833 43.0706 33.5835 44.083C33.5835 45.0955 32.762 45.917 31.7495 45.917C30.7371 45.9168 29.9165 45.0954 29.9165 44.083C29.9167 43.0707 30.7372 42.2502 31.7495 42.25Z" fill="#B1B100" stroke="#B1B100"/>
<path d="M39.9165 42.25C40.9289 42.25 41.7503 43.0706 41.7505 44.083C41.7505 45.0955 40.929 45.917 39.9165 45.917C38.9041 45.9168 38.0835 45.0954 38.0835 44.083C38.0837 43.0707 38.9042 42.2502 39.9165 42.25Z" fill="#B1B100" stroke="#B1B100"/>
<path d="M48.083 42.25C49.0954 42.25 49.9168 43.0706 49.917 44.083C49.917 45.0955 49.0955 45.917 48.083 45.917C47.0706 45.9168 46.25 45.0954 46.25 44.083C46.2502 43.0707 47.0707 42.2502 48.083 42.25Z" fill="#B1B100" stroke="#B1B100"/>
<path d="M31.7495 51.5833C32.7619 51.5833 33.5833 52.4039 33.5835 53.4163C33.5835 54.4288 32.762 55.2502 31.7495 55.2502C30.7371 55.2501 29.9165 54.4287 29.9165 53.4163C29.9167 52.404 30.7372 51.5834 31.7495 51.5833Z" fill="#B1B100" stroke="#B1B100"/>
<path d="M39.9165 51.5833C40.9289 51.5833 41.7503 52.4039 41.7505 53.4163C41.7505 54.4288 40.929 55.2502 39.9165 55.2502C38.9041 55.2501 38.0835 54.4287 38.0835 53.4163C38.0837 52.404 38.9042 51.5834 39.9165 51.5833Z" fill="#B1B100" stroke="#B1B100"/>
<path d="M48.083 51.5833C49.0954 51.5833 49.9168 52.4039 49.917 53.4163C49.917 54.4288 49.0955 55.2502 48.083 55.2502C47.0706 55.2501 46.25 54.4287 46.25 53.4163C46.2502 52.404 47.0707 51.5834 48.083 51.5833Z" fill="#B1B100" stroke="#B1B100"/>
</g>
<defs>
<clipPath id="clip0_343_1829">
<rect width="56" height="56" fill="white" transform="translate(12 12)"/>
</clipPath>
</defs>
</svg>
