<svg width="391" height="381" viewBox="0 0 391 381" fill="none" xmlns="http://www.w3.org/2000/svg">
<rect x="10.5" y="10.5" width="370" height="360" fill="white"/>
<rect x="10.5" y="10.5" width="370" height="360" stroke="#AFAFAF"/>
<path d="M78.5 48L72.5 42L78.5 36" stroke="black" stroke-width="2" stroke-linecap="round" stroke-linejoin="round"/>
<path d="M152.716 38.0909C152.631 37.3712 152.285 36.8125 151.679 36.4148C151.073 36.017 150.33 35.8182 149.449 35.8182C148.805 35.8182 148.241 35.9223 147.759 36.1307C147.28 36.339 146.906 36.6255 146.636 36.9901C146.371 37.3546 146.239 37.7689 146.239 38.233C146.239 38.6212 146.331 38.955 146.516 39.2344C146.705 39.509 146.946 39.7386 147.24 39.9233C147.534 40.1032 147.841 40.2524 148.163 40.3707C148.485 40.4844 148.781 40.5767 149.051 40.6477L150.528 41.0455C150.907 41.1449 151.329 41.2822 151.793 41.4574C152.261 41.6326 152.709 41.8717 153.135 42.1747C153.566 42.473 153.921 42.8565 154.2 43.3253C154.48 43.794 154.619 44.3693 154.619 45.0511C154.619 45.8371 154.413 46.5473 154.001 47.1818C153.594 47.8163 152.998 48.3205 152.212 48.6946C151.43 49.0687 150.481 49.2557 149.364 49.2557C148.322 49.2557 147.42 49.0876 146.658 48.7514C145.9 48.4152 145.304 47.9465 144.868 47.3452C144.437 46.7438 144.193 46.0455 144.136 45.25H145.955C146.002 45.7992 146.187 46.2538 146.509 46.6136C146.835 46.9687 147.247 47.2339 147.744 47.4091C148.246 47.5795 148.786 47.6648 149.364 47.6648C150.036 47.6648 150.64 47.5559 151.175 47.3381C151.71 47.1155 152.134 46.8078 152.446 46.4148C152.759 46.017 152.915 45.553 152.915 45.0227C152.915 44.5398 152.78 44.1468 152.51 43.8438C152.24 43.5407 151.885 43.2945 151.445 43.1051C151.004 42.9157 150.528 42.75 150.017 42.608L148.227 42.0966C147.091 41.7699 146.191 41.3035 145.528 40.6974C144.866 40.0914 144.534 39.2983 144.534 38.3182C144.534 37.5038 144.754 36.7936 145.195 36.1875C145.64 35.5767 146.236 35.1032 146.984 34.767C147.737 34.4261 148.578 34.2557 149.506 34.2557C150.443 34.2557 151.277 34.4238 152.006 34.7599C152.735 35.0914 153.313 35.5459 153.739 36.1236C154.17 36.7012 154.397 37.357 154.42 38.0909H152.716ZM161.862 49.2273C160.811 49.2273 159.904 48.9953 159.142 48.5312C158.384 48.0625 157.799 47.4091 157.387 46.571C156.98 45.7282 156.777 44.7481 156.777 43.6307C156.777 42.5133 156.98 41.5284 157.387 40.6761C157.799 39.8191 158.372 39.1515 159.106 38.6733C159.845 38.1903 160.707 37.9489 161.691 37.9489C162.26 37.9489 162.821 38.0436 163.375 38.233C163.929 38.4223 164.433 38.7301 164.887 39.1562C165.342 39.5777 165.704 40.1364 165.974 40.8324C166.244 41.5284 166.379 42.3854 166.379 43.4034V44.1136H157.97V42.6648H164.674C164.674 42.0492 164.551 41.5 164.305 41.017C164.064 40.5341 163.718 40.1529 163.268 39.8736C162.823 39.5942 162.297 39.4545 161.691 39.4545C161.024 39.4545 160.446 39.6203 159.958 39.9517C159.475 40.2784 159.104 40.7045 158.843 41.2301C158.583 41.7557 158.453 42.3191 158.453 42.9205V43.8864C158.453 44.7102 158.595 45.4086 158.879 45.9815C159.168 46.5497 159.568 46.983 160.079 47.2812C160.591 47.5748 161.185 47.7216 161.862 47.7216C162.302 47.7216 162.7 47.66 163.055 47.5369C163.415 47.4091 163.725 47.2197 163.985 46.9688C164.246 46.7131 164.447 46.3958 164.589 46.017L166.208 46.4716C166.038 47.0208 165.752 47.5038 165.349 47.9205C164.947 48.3324 164.449 48.6544 163.858 48.8864C163.266 49.1136 162.6 49.2273 161.862 49.2273ZM168.929 53.0909V38.0909H170.548V39.8239H170.747C170.87 39.6345 171.04 39.393 171.258 39.0994C171.481 38.8011 171.798 38.536 172.21 38.304C172.627 38.0672 173.19 37.9489 173.9 37.9489C174.819 37.9489 175.628 38.1785 176.329 38.6378C177.03 39.0971 177.577 39.7481 177.97 40.5909C178.363 41.4337 178.559 42.428 178.559 43.5739C178.559 44.7292 178.363 45.7306 177.97 46.5781C177.577 47.4209 177.032 48.0743 176.336 48.5384C175.64 48.9976 174.838 49.2273 173.929 49.2273C173.228 49.2273 172.667 49.1113 172.245 48.8793C171.824 48.6425 171.5 48.375 171.272 48.0767C171.045 47.7737 170.87 47.5227 170.747 47.3239H170.605V53.0909H168.929ZM170.576 43.5455C170.576 44.3693 170.697 45.0961 170.939 45.7259C171.18 46.3509 171.533 46.8409 171.997 47.196C172.461 47.5464 173.029 47.7216 173.701 47.7216C174.402 47.7216 174.987 47.5369 175.456 47.1676C175.929 46.7936 176.284 46.2917 176.521 45.6619C176.762 45.0275 176.883 44.322 176.883 43.5455C176.883 42.7784 176.765 42.0871 176.528 41.4716C176.296 40.8513 175.943 40.3613 175.47 40.0014C175.001 39.6368 174.412 39.4545 173.701 39.4545C173.02 39.4545 172.447 39.6274 171.983 39.973C171.519 40.3139 171.168 40.7921 170.931 41.4077C170.695 42.0185 170.576 42.7311 170.576 43.5455ZM185.86 38.0909V39.5114H180.207V38.0909H185.86ZM181.855 35.4773H183.531V45.875C183.531 46.3485 183.6 46.7036 183.737 46.9403C183.879 47.1723 184.059 47.3286 184.277 47.4091C184.499 47.4848 184.734 47.5227 184.98 47.5227C185.164 47.5227 185.316 47.5133 185.434 47.4943C185.553 47.4706 185.647 47.4517 185.718 47.4375L186.059 48.9432C185.946 48.9858 185.787 49.0284 185.583 49.071C185.38 49.1184 185.122 49.142 184.809 49.142C184.336 49.142 183.872 49.0402 183.417 48.8366C182.967 48.633 182.593 48.3229 182.295 47.9062C182.002 47.4896 181.855 46.964 181.855 46.3295V35.4773ZM192.838 49.2273C191.787 49.2273 190.881 48.9953 190.118 48.5312C189.361 48.0625 188.776 47.4091 188.364 46.571C187.957 45.7282 187.753 44.7481 187.753 43.6307C187.753 42.5133 187.957 41.5284 188.364 40.6761C188.776 39.8191 189.349 39.1515 190.083 38.6733C190.821 38.1903 191.683 37.9489 192.668 37.9489C193.236 37.9489 193.797 38.0436 194.351 38.233C194.905 38.4223 195.409 38.7301 195.864 39.1562C196.319 39.5777 196.681 40.1364 196.951 40.8324C197.221 41.5284 197.355 42.3854 197.355 43.4034V44.1136H188.946V42.6648H195.651C195.651 42.0492 195.528 41.5 195.282 41.017C195.04 40.5341 194.694 40.1529 194.245 39.8736C193.8 39.5942 193.274 39.4545 192.668 39.4545C192 39.4545 191.423 39.6203 190.935 39.9517C190.452 40.2784 190.08 40.7045 189.82 41.2301C189.56 41.7557 189.429 42.3191 189.429 42.9205V43.8864C189.429 44.7102 189.571 45.4086 189.855 45.9815C190.144 46.5497 190.544 46.983 191.056 47.2812C191.567 47.5748 192.161 47.7216 192.838 47.7216C193.279 47.7216 193.676 47.66 194.032 47.5369C194.391 47.4091 194.702 47.2197 194.962 46.9688C195.222 46.7131 195.424 46.3958 195.566 46.017L197.185 46.4716C197.015 47.0208 196.728 47.5038 196.326 47.9205C195.923 48.3324 195.426 48.6544 194.834 48.8864C194.242 49.1136 193.577 49.2273 192.838 49.2273ZM199.905 49V38.0909H201.525V39.7955H201.667C201.894 39.2131 202.261 38.7609 202.767 38.4389C203.274 38.1122 203.882 37.9489 204.593 37.9489C205.312 37.9489 205.911 38.1122 206.39 38.4389C206.873 38.7609 207.249 39.2131 207.519 39.7955H207.632C207.912 39.232 208.331 38.7846 208.89 38.4531C209.448 38.117 210.118 37.9489 210.9 37.9489C211.875 37.9489 212.673 38.2543 213.293 38.8651C213.913 39.4711 214.223 40.4157 214.223 41.6989V49H212.547V41.6989C212.547 40.8939 212.327 40.3187 211.887 39.973C211.446 39.6274 210.928 39.4545 210.331 39.4545C209.564 39.4545 208.97 39.6866 208.549 40.1506C208.127 40.6098 207.917 41.1922 207.917 41.8977V49H206.212V41.5284C206.212 40.9081 206.011 40.4086 205.608 40.0298C205.206 39.6463 204.687 39.4545 204.053 39.4545C203.617 39.4545 203.21 39.5705 202.831 39.8026C202.457 40.0346 202.154 40.3565 201.922 40.7685C201.695 41.1757 201.581 41.6468 201.581 42.1818V49H199.905ZM217.515 49V34.4545H219.191V39.8239H219.333C219.457 39.6345 219.627 39.393 219.845 39.0994C220.067 38.8011 220.385 38.536 220.797 38.304C221.213 38.0672 221.777 37.9489 222.487 37.9489C223.405 37.9489 224.215 38.1785 224.916 38.6378C225.617 39.0971 226.163 39.7481 226.556 40.5909C226.949 41.4337 227.146 42.428 227.146 43.5739C227.146 44.7292 226.949 45.7306 226.556 46.5781C226.163 47.4209 225.619 48.0743 224.923 48.5384C224.227 48.9976 223.424 49.2273 222.515 49.2273C221.815 49.2273 221.253 49.1113 220.832 48.8793C220.411 48.6425 220.086 48.375 219.859 48.0767C219.632 47.7737 219.457 47.5227 219.333 47.3239H219.135V49H217.515ZM219.163 43.5455C219.163 44.3693 219.284 45.0961 219.525 45.7259C219.767 46.3509 220.119 46.8409 220.583 47.196C221.047 47.5464 221.616 47.7216 222.288 47.7216C222.989 47.7216 223.574 47.5369 224.042 47.1676C224.516 46.7936 224.871 46.2917 225.108 45.6619C225.349 45.0275 225.47 44.322 225.47 43.5455C225.47 42.7784 225.351 42.0871 225.115 41.4716C224.883 40.8513 224.53 40.3613 224.056 40.0014C223.588 39.6368 222.998 39.4545 222.288 39.4545C221.606 39.4545 221.033 39.6274 220.569 39.973C220.105 40.3139 219.755 40.7921 219.518 41.4077C219.281 42.0185 219.163 42.7311 219.163 43.5455ZM234.284 49.2273C233.233 49.2273 232.326 48.9953 231.564 48.5312C230.806 48.0625 230.221 47.4091 229.809 46.571C229.402 45.7282 229.199 44.7481 229.199 43.6307C229.199 42.5133 229.402 41.5284 229.809 40.6761C230.221 39.8191 230.794 39.1515 231.528 38.6733C232.267 38.1903 233.128 37.9489 234.113 37.9489C234.681 37.9489 235.243 38.0436 235.797 38.233C236.35 38.4223 236.855 38.7301 237.309 39.1562C237.764 39.5777 238.126 40.1364 238.396 40.8324C238.666 41.5284 238.801 42.3854 238.801 43.4034V44.1136H230.392V42.6648H237.096C237.096 42.0492 236.973 41.5 236.727 41.017C236.485 40.5341 236.14 40.1529 235.69 39.8736C235.245 39.5942 234.719 39.4545 234.113 39.4545C233.446 39.4545 232.868 39.6203 232.38 39.9517C231.897 40.2784 231.526 40.7045 231.265 41.2301C231.005 41.7557 230.875 42.3191 230.875 42.9205V43.8864C230.875 44.7102 231.017 45.4086 231.301 45.9815C231.59 46.5497 231.99 46.983 232.501 47.2812C233.012 47.5748 233.607 47.7216 234.284 47.7216C234.724 47.7216 235.122 47.66 235.477 47.5369C235.837 47.4091 236.147 47.2197 236.407 46.9688C236.668 46.7131 236.869 46.3958 237.011 46.017L238.63 46.4716C238.46 47.0208 238.173 47.5038 237.771 47.9205C237.368 48.3324 236.871 48.6544 236.279 48.8864C235.688 49.1136 235.022 49.2273 234.284 49.2273ZM241.35 49V38.0909H242.97V39.7386H243.083C243.282 39.1989 243.642 38.7609 244.163 38.4247C244.684 38.0885 245.271 37.9205 245.924 37.9205C246.047 37.9205 246.201 37.9228 246.386 37.9276C246.571 37.9323 246.71 37.9394 246.805 37.9489V39.6534C246.748 39.6392 246.618 39.6179 246.414 39.5895C246.216 39.5563 246.005 39.5398 245.782 39.5398C245.252 39.5398 244.779 39.651 244.362 39.8736C243.95 40.0914 243.623 40.3944 243.382 40.7827C243.145 41.1662 243.027 41.6042 243.027 42.0966V49H241.35Z" fill="black"/>
<path d="M312.5 36L318.5 42L312.5 48" stroke="black" stroke-width="2" stroke-linecap="round" stroke-linejoin="round"/>
<g clip-path="url(#clip0_315_2607)">
<path d="M27.5 75H363.5V347H27.5V75Z" fill="white"/>
<g clip-path="url(#clip1_315_2607)">
<rect width="336" height="32" transform="translate(27.5 75)" fill="white"/>
<path d="M49.8295 88.9545C49.7784 88.5227 49.571 88.1875 49.2074 87.9489C48.8438 87.7102 48.3977 87.5909 47.8693 87.5909C47.483 87.5909 47.1449 87.6534 46.8551 87.7784C46.5682 87.9034 46.3438 88.0753 46.1818 88.294C46.0227 88.5128 45.9432 88.7614 45.9432 89.0398C45.9432 89.2727 45.9986 89.473 46.1094 89.6406C46.223 89.8054 46.3679 89.9432 46.544 90.054C46.7202 90.1619 46.9048 90.2514 47.098 90.3224C47.2912 90.3906 47.4688 90.446 47.6307 90.4886L48.517 90.7273C48.7443 90.7869 48.9972 90.8693 49.2756 90.9744C49.5568 91.0795 49.8253 91.223 50.081 91.4048C50.3395 91.5838 50.5526 91.8139 50.7202 92.0952C50.8878 92.3764 50.9716 92.7216 50.9716 93.1307C50.9716 93.6023 50.848 94.0284 50.6009 94.4091C50.3565 94.7898 49.9986 95.0923 49.527 95.3168C49.0582 95.5412 48.4886 95.6534 47.8182 95.6534C47.1932 95.6534 46.652 95.5526 46.1946 95.3509C45.7401 95.1491 45.3821 94.8679 45.1207 94.5071C44.8622 94.1463 44.7159 93.7273 44.6818 93.25H45.7727C45.8011 93.5795 45.9119 93.8523 46.1051 94.0682C46.3011 94.2812 46.5483 94.4403 46.8466 94.5455C47.1477 94.6477 47.4716 94.6989 47.8182 94.6989C48.2216 94.6989 48.5838 94.6335 48.9048 94.5028C49.2259 94.3693 49.4801 94.1847 49.6676 93.9489C49.8551 93.7102 49.9489 93.4318 49.9489 93.1136C49.9489 92.8239 49.8679 92.5881 49.706 92.4062C49.544 92.2244 49.331 92.0767 49.0668 91.9631C48.8026 91.8494 48.517 91.75 48.2102 91.6648L47.1364 91.358C46.4545 91.1619 45.9148 90.8821 45.517 90.5185C45.1193 90.1548 44.9205 89.679 44.9205 89.0909C44.9205 88.6023 45.0526 88.1761 45.3168 87.8125C45.5838 87.446 45.9418 87.1619 46.3906 86.9602C46.8423 86.7557 47.3466 86.6534 47.9034 86.6534C48.4659 86.6534 48.9659 86.7543 49.4034 86.956C49.8409 87.1548 50.1875 87.4276 50.4432 87.7741C50.7017 88.1207 50.8381 88.5142 50.8523 88.9545H49.8295ZM56.6978 92.8239V88.9545H57.7035V95.5H56.6978V94.392H56.6296C56.4762 94.7244 56.2376 95.0071 55.9137 95.2401C55.5898 95.4702 55.1808 95.5852 54.6864 95.5852C54.2773 95.5852 53.9137 95.4957 53.5955 95.3168C53.2773 95.1349 53.0273 94.8622 52.8455 94.4986C52.6637 94.1321 52.5728 93.6705 52.5728 93.1136V88.9545H53.5785V93.0455C53.5785 93.5227 53.712 93.9034 53.979 94.1875C54.2489 94.4716 54.5927 94.6136 55.0103 94.6136C55.2603 94.6136 55.5146 94.5497 55.7731 94.4219C56.0344 94.294 56.2532 94.098 56.4293 93.8338C56.6083 93.5696 56.6978 93.233 56.6978 92.8239Z" fill="#666666"/>
<path d="M91.5568 86.7727H92.8182L95.7841 94.017H95.8864L98.8523 86.7727H100.114V95.5H99.125V88.8693H99.0398L96.3125 95.5H95.358L92.6307 88.8693H92.5455V95.5H91.5568V86.7727ZM104.755 95.6364C104.164 95.6364 103.646 95.4957 103.2 95.2145C102.757 94.9332 102.41 94.5398 102.16 94.0341C101.913 93.5284 101.789 92.9375 101.789 92.2614C101.789 91.5795 101.913 90.9844 102.16 90.4759C102.41 89.9673 102.757 89.5724 103.2 89.2912C103.646 89.0099 104.164 88.8693 104.755 88.8693C105.346 88.8693 105.863 89.0099 106.306 89.2912C106.752 89.5724 107.099 89.9673 107.346 90.4759C107.596 90.9844 107.721 91.5795 107.721 92.2614C107.721 92.9375 107.596 93.5284 107.346 94.0341C107.099 94.5398 106.752 94.9332 106.306 95.2145C105.863 95.4957 105.346 95.6364 104.755 95.6364ZM104.755 94.733C105.204 94.733 105.574 94.6179 105.863 94.3878C106.153 94.1577 106.368 93.8551 106.507 93.4801C106.646 93.1051 106.716 92.6989 106.716 92.2614C106.716 91.8239 106.646 91.4162 106.507 91.0384C106.368 90.6605 106.153 90.3551 105.863 90.1222C105.574 89.8892 105.204 89.7727 104.755 89.7727C104.306 89.7727 103.937 89.8892 103.647 90.1222C103.358 90.3551 103.143 90.6605 103.004 91.0384C102.865 91.4162 102.795 91.8239 102.795 92.2614C102.795 92.6989 102.865 93.1051 103.004 93.4801C103.143 93.8551 103.358 94.1577 103.647 94.3878C103.937 94.6179 104.306 94.733 104.755 94.733Z" fill="#666666"/>
<path d="M141.08 87.7102V86.7727H147.625V87.7102H144.881V95.5H143.824V87.7102H141.08ZM152.354 92.8239V88.9545H153.36V95.5H152.354V94.392H152.286C152.132 94.7244 151.894 95.0071 151.57 95.2401C151.246 95.4702 150.837 95.5852 150.343 95.5852C149.934 95.5852 149.57 95.4957 149.252 95.3168C148.934 95.1349 148.684 94.8622 148.502 94.4986C148.32 94.1321 148.229 93.6705 148.229 93.1136V88.9545H149.235V93.0455C149.235 93.5227 149.368 93.9034 149.635 94.1875C149.905 94.4716 150.249 94.6136 150.667 94.6136C150.917 94.6136 151.171 94.5497 151.429 94.4219C151.691 94.294 151.909 94.098 152.086 93.8338C152.265 93.5696 152.354 93.233 152.354 92.8239Z" fill="#666666"/>
<path d="M189.142 95.5L186.756 86.7727H187.83L189.653 93.8807H189.739L191.597 86.7727H192.79L194.648 93.8807H194.733L196.557 86.7727H197.631L195.244 95.5H194.153L192.227 88.5455H192.159L190.233 95.5H189.142ZM200.946 95.6364C200.315 95.6364 199.771 95.4972 199.314 95.2188C198.859 94.9375 198.509 94.5455 198.261 94.0426C198.017 93.5369 197.895 92.9489 197.895 92.2784C197.895 91.608 198.017 91.017 198.261 90.5057C198.509 89.9915 198.852 89.5909 199.293 89.304C199.736 89.0142 200.253 88.8693 200.844 88.8693C201.185 88.8693 201.521 88.9261 201.854 89.0398C202.186 89.1534 202.489 89.3381 202.761 89.5938C203.034 89.8466 203.251 90.1818 203.413 90.5994C203.575 91.017 203.656 91.5312 203.656 92.142V92.5682H198.611V91.6989H202.634C202.634 91.3295 202.56 91 202.412 90.7102C202.267 90.4205 202.06 90.1918 201.79 90.0241C201.523 89.8565 201.207 89.7727 200.844 89.7727C200.443 89.7727 200.097 89.8722 199.804 90.071C199.514 90.267 199.291 90.5227 199.135 90.8381C198.979 91.1534 198.901 91.4915 198.901 91.8523V92.4318C198.901 92.9261 198.986 93.3452 199.156 93.6889C199.33 94.0298 199.57 94.2898 199.876 94.4688C200.183 94.6449 200.54 94.733 200.946 94.733C201.21 94.733 201.449 94.696 201.662 94.6222C201.878 94.5455 202.064 94.4318 202.22 94.2812C202.376 94.1278 202.497 93.9375 202.582 93.7102L203.554 93.983C203.452 94.3125 203.28 94.6023 203.038 94.8523C202.797 95.0994 202.499 95.2926 202.143 95.4318C201.788 95.5682 201.389 95.6364 200.946 95.6364Z" fill="#666666"/>
<path d="M236.58 87.7102V86.7727H243.125V87.7102H240.381V95.5H239.324V87.7102H236.58ZM245.625 91.5625V95.5H244.62V86.7727H245.625V89.9773H245.711C245.864 89.6392 246.094 89.3707 246.401 89.1719C246.711 88.9702 247.123 88.8693 247.637 88.8693C248.083 88.8693 248.473 88.9588 248.809 89.1378C249.144 89.3139 249.404 89.5852 249.588 89.9517C249.776 90.3153 249.87 90.7784 249.87 91.3409V95.5H248.864V91.4091C248.864 90.8892 248.729 90.4872 248.459 90.2031C248.192 89.9162 247.821 89.7727 247.347 89.7727C247.017 89.7727 246.722 89.8423 246.461 89.9815C246.202 90.1207 245.998 90.3239 245.847 90.5909C245.699 90.858 245.625 91.1818 245.625 91.5625Z" fill="#666666"/>
<path d="M286.08 87.7102V86.7727H292.625V87.7102H289.881V95.5H288.824V87.7102H286.08ZM293.44 95.5V88.9545H294.412V89.9432H294.48C294.599 89.6193 294.815 89.3565 295.127 89.1548C295.44 88.9531 295.792 88.8523 296.184 88.8523C296.258 88.8523 296.35 88.8537 296.461 88.8565C296.572 88.8594 296.656 88.8636 296.713 88.8693V89.892C296.679 89.8835 296.6 89.8707 296.478 89.8537C296.359 89.8338 296.233 89.8239 296.099 89.8239C295.781 89.8239 295.497 89.8906 295.247 90.0241C295 90.1548 294.804 90.3366 294.659 90.5696C294.517 90.7997 294.446 91.0625 294.446 91.358V95.5H293.44Z" fill="#666666"/>
<path d="M337.83 88.9545C337.778 88.5227 337.571 88.1875 337.207 87.9489C336.844 87.7102 336.398 87.5909 335.869 87.5909C335.483 87.5909 335.145 87.6534 334.855 87.7784C334.568 87.9034 334.344 88.0753 334.182 88.294C334.023 88.5128 333.943 88.7614 333.943 89.0398C333.943 89.2727 333.999 89.473 334.109 89.6406C334.223 89.8054 334.368 89.9432 334.544 90.054C334.72 90.1619 334.905 90.2514 335.098 90.3224C335.291 90.3906 335.469 90.446 335.631 90.4886L336.517 90.7273C336.744 90.7869 336.997 90.8693 337.276 90.9744C337.557 91.0795 337.825 91.223 338.081 91.4048C338.339 91.5838 338.553 91.8139 338.72 92.0952C338.888 92.3764 338.972 92.7216 338.972 93.1307C338.972 93.6023 338.848 94.0284 338.601 94.4091C338.357 94.7898 337.999 95.0923 337.527 95.3168C337.058 95.5412 336.489 95.6534 335.818 95.6534C335.193 95.6534 334.652 95.5526 334.195 95.3509C333.74 95.1491 333.382 94.8679 333.121 94.5071C332.862 94.1463 332.716 93.7273 332.682 93.25H333.773C333.801 93.5795 333.912 93.8523 334.105 94.0682C334.301 94.2812 334.548 94.4403 334.847 94.5455C335.148 94.6477 335.472 94.6989 335.818 94.6989C336.222 94.6989 336.584 94.6335 336.905 94.5028C337.226 94.3693 337.48 94.1847 337.668 93.9489C337.855 93.7102 337.949 93.4318 337.949 93.1136C337.949 92.8239 337.868 92.5881 337.706 92.4062C337.544 92.2244 337.331 92.0767 337.067 91.9631C336.803 91.8494 336.517 91.75 336.21 91.6648L335.136 91.358C334.455 91.1619 333.915 90.8821 333.517 90.5185C333.119 90.1548 332.92 89.679 332.92 89.0909C332.92 88.6023 333.053 88.1761 333.317 87.8125C333.584 87.446 333.942 87.1619 334.391 86.9602C334.842 86.7557 335.347 86.6534 335.903 86.6534C336.466 86.6534 336.966 86.7543 337.403 86.956C337.841 87.1548 338.188 87.4276 338.443 87.7741C338.702 88.1207 338.838 88.5142 338.852 88.9545H337.83ZM342.499 95.6534C342.084 95.6534 341.708 95.5753 341.37 95.419C341.032 95.2599 340.763 95.0312 340.564 94.733C340.365 94.4318 340.266 94.0682 340.266 93.642C340.266 93.267 340.34 92.9631 340.488 92.7301C340.635 92.4943 340.833 92.3097 341.08 92.1761C341.327 92.0426 341.6 91.9432 341.898 91.8778C342.199 91.8097 342.502 91.7557 342.806 91.7159C343.203 91.6648 343.526 91.6264 343.773 91.6009C344.023 91.5724 344.205 91.5256 344.319 91.4602C344.435 91.3949 344.493 91.2812 344.493 91.1193V91.0852C344.493 90.6648 344.378 90.3381 344.148 90.1051C343.921 89.8722 343.576 89.7557 343.113 89.7557C342.632 89.7557 342.256 89.8608 341.983 90.071C341.711 90.2812 341.519 90.5057 341.408 90.7443L340.453 90.4034C340.624 90.0057 340.851 89.696 341.135 89.4744C341.422 89.25 341.735 89.0937 342.073 89.0057C342.414 88.9148 342.749 88.8693 343.078 88.8693C343.289 88.8693 343.53 88.8949 343.803 88.946C344.078 88.9943 344.344 89.0952 344.6 89.2486C344.858 89.402 345.073 89.6335 345.243 89.9432C345.414 90.2528 345.499 90.6676 345.499 91.1875V95.5H344.493V94.6136H344.442C344.374 94.7557 344.26 94.9077 344.101 95.0696C343.942 95.2315 343.73 95.3693 343.466 95.483C343.202 95.5966 342.88 95.6534 342.499 95.6534ZM342.652 94.75C343.05 94.75 343.385 94.6719 343.658 94.5156C343.934 94.3594 344.141 94.1577 344.28 93.9105C344.422 93.6634 344.493 93.4034 344.493 93.1307V92.2102C344.451 92.2614 344.357 92.3082 344.212 92.3509C344.07 92.3906 343.905 92.4261 343.718 92.4574C343.533 92.4858 343.353 92.5114 343.176 92.5341C343.003 92.554 342.863 92.571 342.755 92.5852C342.493 92.6193 342.249 92.6747 342.022 92.7514C341.797 92.8253 341.615 92.9375 341.476 93.0881C341.34 93.2358 341.272 93.4375 341.272 93.6932C341.272 94.0426 341.401 94.3068 341.659 94.4858C341.921 94.6619 342.252 94.75 342.652 94.75Z" fill="#666666"/>
</g>
<g clip-path="url(#clip2_315_2607)">
<rect width="336" height="48" transform="translate(27.5 107)" fill="white"/>
<path d="M43.554 136.5V135.605L46.9148 131.926C47.3092 131.495 47.634 131.121 47.8892 130.803C48.1444 130.481 48.3333 130.179 48.456 129.898C48.5819 129.613 48.6449 129.314 48.6449 129.003C48.6449 128.645 48.5587 128.335 48.3864 128.073C48.2173 127.811 47.9853 127.609 47.6903 127.467C47.3954 127.324 47.0639 127.253 46.696 127.253C46.3049 127.253 45.9635 127.334 45.6719 127.496C45.3835 127.656 45.1598 127.879 45.0007 128.168C44.8449 128.456 44.767 128.794 44.767 129.182H43.5938C43.5938 128.585 43.7313 128.062 44.0064 127.611C44.2815 127.16 44.656 126.809 45.13 126.557C45.6072 126.305 46.1425 126.179 46.7358 126.179C47.3324 126.179 47.861 126.305 48.3217 126.557C48.7824 126.809 49.1437 127.148 49.4055 127.576C49.6674 128.004 49.7983 128.479 49.7983 129.003C49.7983 129.377 49.7304 129.744 49.5945 130.102C49.4619 130.456 49.2299 130.852 48.8984 131.29C48.5703 131.724 48.1146 132.254 47.5312 132.881L45.2443 135.327V135.406H49.9773V136.5H43.554ZM55.272 126.179C55.6896 126.182 56.1072 126.262 56.5249 126.418C56.9425 126.573 57.3236 126.832 57.6683 127.193C58.013 127.551 58.2898 128.04 58.4986 128.66C58.7074 129.28 58.8118 130.057 58.8118 130.991C58.8118 131.896 58.7256 132.7 58.5533 133.403C58.3842 134.102 58.139 134.692 57.8175 135.173C57.4993 135.653 57.1115 136.018 56.6541 136.266C56.2 136.515 55.6863 136.639 55.1129 136.639C54.5429 136.639 54.0341 136.527 53.5866 136.301C53.1425 136.072 52.7779 135.756 52.4929 135.352C52.2112 134.944 52.0305 134.472 51.951 133.935H53.1641C53.2734 134.402 53.4905 134.788 53.8153 135.093C54.1435 135.395 54.576 135.545 55.1129 135.545C55.8984 135.545 56.5182 135.202 56.9723 134.516C57.4297 133.83 57.6584 132.861 57.6584 131.608H57.5788C57.3932 131.886 57.1728 132.127 56.9176 132.329C56.6624 132.531 56.379 132.687 56.0675 132.796C55.7559 132.906 55.4245 132.96 55.0732 132.96C54.4898 132.96 53.9545 132.816 53.4673 132.528C52.9834 132.236 52.5956 131.837 52.304 131.33C52.0156 130.819 51.8714 130.236 51.8714 129.58C51.8714 128.956 52.0107 128.386 52.2891 127.869C52.5708 127.349 52.9652 126.935 53.4723 126.626C53.9827 126.318 54.5826 126.169 55.272 126.179ZM55.272 127.273C54.8544 127.273 54.4782 127.377 54.1435 127.586C53.812 127.791 53.5485 128.07 53.353 128.421C53.1607 128.769 53.0646 129.155 53.0646 129.58C53.0646 130.004 53.1574 130.39 53.343 130.738C53.532 131.083 53.7888 131.358 54.1136 131.563C54.4418 131.765 54.8146 131.866 55.2322 131.866C55.5471 131.866 55.8404 131.805 56.1122 131.683C56.384 131.557 56.621 131.386 56.8232 131.17C57.0286 130.952 57.1894 130.705 57.3054 130.43C57.4214 130.151 57.4794 129.861 57.4794 129.56C57.4794 129.162 57.3833 128.789 57.1911 128.441C57.0021 128.093 56.7403 127.811 56.4055 127.596C56.0741 127.38 55.6963 127.273 55.272 127.273Z" fill="#AAAAAA"/>
<path d="M94.9943 136.639C94.3381 136.639 93.7531 136.527 93.2393 136.301C92.7289 136.076 92.3229 135.763 92.0213 135.362C91.723 134.957 91.5606 134.488 91.5341 133.955H92.7869C92.8134 134.283 92.9261 134.566 93.125 134.805C93.3239 135.04 93.584 135.222 93.9055 135.352C94.227 135.481 94.5833 135.545 94.9744 135.545C95.4119 135.545 95.7997 135.469 96.1378 135.317C96.4759 135.164 96.741 134.952 96.9332 134.68C97.1255 134.409 97.2216 134.094 97.2216 133.736C97.2216 133.361 97.1288 133.031 96.9432 132.746C96.7576 132.458 96.4858 132.233 96.1278 132.07C95.7699 131.908 95.3324 131.827 94.8153 131.827H94V130.733H94.8153C95.2197 130.733 95.5743 130.66 95.8793 130.514C96.1875 130.368 96.4278 130.163 96.6001 129.898C96.7758 129.633 96.8636 129.321 96.8636 128.963C96.8636 128.618 96.7874 128.318 96.6349 128.063C96.4825 127.808 96.267 127.609 95.9886 127.467C95.7135 127.324 95.3887 127.253 95.0142 127.253C94.6629 127.253 94.3314 127.317 94.0199 127.447C93.7116 127.573 93.4598 127.757 93.2642 127.999C93.0687 128.237 92.9626 128.526 92.946 128.864H91.7528C91.7727 128.33 91.9335 127.863 92.2351 127.462C92.5367 127.057 92.9311 126.742 93.4183 126.517C93.9089 126.292 94.4474 126.179 95.0341 126.179C95.6638 126.179 96.2041 126.307 96.6548 126.562C97.1056 126.814 97.4519 127.147 97.6939 127.561C97.9358 127.975 98.0568 128.423 98.0568 128.903C98.0568 129.477 97.906 129.966 97.6044 130.37C97.3061 130.774 96.9001 131.054 96.3864 131.21V131.29C97.0294 131.396 97.5315 131.669 97.8928 132.11C98.254 132.548 98.4347 133.089 98.4347 133.736C98.4347 134.289 98.2839 134.786 97.9822 135.227C97.6839 135.665 97.2763 136.009 96.7592 136.261C96.2422 136.513 95.6539 136.639 94.9943 136.639ZM103.789 136.639C103.04 136.639 102.402 136.435 101.875 136.028C101.348 135.617 100.945 135.022 100.667 134.243C100.388 133.461 100.249 132.516 100.249 131.409C100.249 130.309 100.388 129.369 100.667 128.59C100.949 127.808 101.353 127.211 101.88 126.8C102.41 126.386 103.047 126.179 103.789 126.179C104.531 126.179 105.166 126.386 105.693 126.8C106.223 127.211 106.628 127.808 106.906 128.59C107.188 129.369 107.329 130.309 107.329 131.409C107.329 132.516 107.19 133.461 106.911 134.243C106.633 135.022 106.23 135.617 105.703 136.028C105.176 136.435 104.538 136.639 103.789 136.639ZM103.789 135.545C104.531 135.545 105.108 135.187 105.519 134.472C105.93 133.756 106.136 132.735 106.136 131.409C106.136 130.527 106.041 129.777 105.852 129.157C105.667 128.537 105.398 128.065 105.047 127.74C104.699 127.415 104.28 127.253 103.789 127.253C103.053 127.253 102.478 127.616 102.064 128.342C101.65 129.064 101.442 130.087 101.442 131.409C101.442 132.291 101.535 133.04 101.721 133.656C101.906 134.273 102.173 134.742 102.521 135.063C102.873 135.385 103.295 135.545 103.789 135.545Z" fill="#AAAAAA"/>
<path d="M148.634 126.318V136.5H147.401V127.611H147.341L144.855 129.261V128.009L147.401 126.318H148.634Z" fill="#333333"/>
<path d="M192.054 136.5V135.605L195.415 131.926C195.809 131.495 196.134 131.121 196.389 130.803C196.644 130.481 196.833 130.179 196.956 129.898C197.082 129.613 197.145 129.314 197.145 129.003C197.145 128.645 197.059 128.335 196.886 128.073C196.717 127.811 196.485 127.609 196.19 127.467C195.895 127.324 195.564 127.253 195.196 127.253C194.805 127.253 194.464 127.334 194.172 127.496C193.884 127.656 193.66 127.879 193.501 128.168C193.345 128.456 193.267 128.794 193.267 129.182H192.094C192.094 128.585 192.231 128.062 192.506 127.611C192.781 127.16 193.156 126.809 193.63 126.557C194.107 126.305 194.643 126.179 195.236 126.179C195.832 126.179 196.361 126.305 196.822 126.557C197.282 126.809 197.644 127.148 197.906 127.576C198.167 128.004 198.298 128.479 198.298 129.003C198.298 129.377 198.23 129.744 198.094 130.102C197.962 130.456 197.73 130.852 197.398 131.29C197.07 131.724 196.615 132.254 196.031 132.881L193.744 135.327V135.406H198.477V136.5H192.054Z" fill="#333333"/>
<rect x="226" y="113.5" width="35" height="35" rx="17.5" stroke="#337AF7"/>
<path d="M243.494 136.639C242.838 136.639 242.253 136.527 241.739 136.301C241.229 136.076 240.823 135.763 240.521 135.362C240.223 134.957 240.061 134.488 240.034 133.955H241.287C241.313 134.283 241.426 134.566 241.625 134.805C241.824 135.04 242.084 135.222 242.406 135.352C242.727 135.481 243.083 135.545 243.474 135.545C243.912 135.545 244.3 135.469 244.638 135.317C244.976 135.164 245.241 134.952 245.433 134.68C245.625 134.409 245.722 134.094 245.722 133.736C245.722 133.361 245.629 133.031 245.443 132.746C245.258 132.458 244.986 132.233 244.628 132.07C244.27 131.908 243.832 131.827 243.315 131.827H242.5V130.733H243.315C243.72 130.733 244.074 130.66 244.379 130.514C244.688 130.368 244.928 130.163 245.1 129.898C245.276 129.633 245.364 129.321 245.364 128.963C245.364 128.618 245.287 128.318 245.135 128.063C244.982 127.808 244.767 127.609 244.489 127.467C244.214 127.324 243.889 127.253 243.514 127.253C243.163 127.253 242.831 127.317 242.52 127.447C242.212 127.573 241.96 127.757 241.764 127.999C241.569 128.237 241.463 128.526 241.446 128.864H240.253C240.273 128.33 240.433 127.863 240.735 127.462C241.037 127.057 241.431 126.742 241.918 126.517C242.409 126.292 242.947 126.179 243.534 126.179C244.164 126.179 244.704 126.307 245.155 126.562C245.606 126.814 245.952 127.147 246.194 127.561C246.436 127.975 246.557 128.423 246.557 128.903C246.557 129.477 246.406 129.966 246.104 130.37C245.806 130.774 245.4 131.054 244.886 131.21V131.29C245.529 131.396 246.031 131.669 246.393 132.11C246.754 132.548 246.935 133.089 246.935 133.736C246.935 134.289 246.784 134.786 246.482 135.227C246.184 135.665 245.776 136.009 245.259 136.261C244.742 136.513 244.154 136.639 243.494 136.639Z" fill="#337AF7"/>
<path d="M287.815 134.412V133.398L292.29 126.318H293.026V127.889H292.528L289.148 133.239V133.318H295.173V134.412H287.815ZM292.608 136.5V134.104V133.631V126.318H293.781V136.5H292.608Z" fill="#333333"/>
<path d="M339.236 136.639C338.652 136.639 338.127 136.523 337.66 136.291C337.192 136.059 336.818 135.741 336.536 135.337C336.254 134.932 336.1 134.472 336.074 133.955H337.267C337.313 134.415 337.522 134.796 337.893 135.098C338.268 135.396 338.715 135.545 339.236 135.545C339.653 135.545 340.025 135.448 340.349 135.252C340.678 135.057 340.934 134.788 341.12 134.447C341.309 134.102 341.403 133.713 341.403 133.278C341.403 132.834 341.306 132.438 341.11 132.09C340.918 131.739 340.653 131.462 340.315 131.26C339.977 131.058 339.59 130.955 339.156 130.952C338.845 130.948 338.525 130.996 338.197 131.096C337.869 131.192 337.598 131.316 337.386 131.469L336.233 131.33L336.849 126.318H342.139V127.412H337.884L337.526 130.415H337.585C337.794 130.249 338.056 130.112 338.371 130.002C338.686 129.893 339.014 129.838 339.355 129.838C339.978 129.838 340.533 129.987 341.021 130.286C341.511 130.58 341.896 130.985 342.174 131.499C342.456 132.012 342.597 132.599 342.597 133.259C342.597 133.908 342.451 134.488 342.159 134.999C341.871 135.506 341.473 135.907 340.966 136.202C340.459 136.493 339.882 136.639 339.236 136.639Z" fill="#333333"/>
</g>
<g clip-path="url(#clip3_315_2607)">
<rect width="336" height="48" transform="translate(27.5 155)" fill="white"/>
<path d="M51.4347 184.639C51.017 184.633 50.5994 184.553 50.1818 184.401C49.7642 184.248 49.383 183.991 49.0384 183.63C48.6937 183.265 48.4169 182.773 48.2081 182.153C47.9993 181.53 47.8949 180.748 47.8949 179.807C47.8949 178.905 47.9794 178.107 48.1484 177.411C48.3175 176.711 48.5627 176.123 48.8842 175.646C49.2057 175.165 49.5935 174.8 50.0476 174.552C50.505 174.303 51.0204 174.179 51.5938 174.179C52.1638 174.179 52.6709 174.293 53.1151 174.522C53.5625 174.747 53.9271 175.062 54.2088 175.467C54.4905 175.871 54.6728 176.337 54.7557 176.864H53.5426C53.4299 176.406 53.2112 176.027 52.8864 175.725C52.5616 175.424 52.1307 175.273 51.5938 175.273C50.8049 175.273 50.1835 175.616 49.7294 176.302C49.2786 176.988 49.0516 177.951 49.0483 179.19H49.1278C49.3134 178.909 49.5339 178.668 49.7891 178.469C50.0476 178.267 50.3326 178.112 50.6442 178.002C50.9557 177.893 51.2855 177.838 51.6335 177.838C52.2169 177.838 52.7505 177.984 53.2344 178.276C53.7183 178.564 54.1061 178.963 54.3977 179.474C54.6894 179.981 54.8352 180.562 54.8352 181.219C54.8352 181.848 54.6944 182.425 54.4126 182.949C54.1309 183.469 53.7348 183.884 53.2244 184.192C52.7173 184.497 52.1207 184.646 51.4347 184.639ZM51.4347 183.545C51.8523 183.545 52.2268 183.441 52.5582 183.232C52.893 183.023 53.1565 182.743 53.3487 182.392C53.5443 182.041 53.642 181.65 53.642 181.219C53.642 180.798 53.5476 180.415 53.3587 180.07C53.1731 179.722 52.9162 179.446 52.5881 179.24C52.2633 179.035 51.892 178.932 51.4744 178.932C51.1596 178.932 50.8662 178.995 50.5945 179.121C50.3227 179.243 50.084 179.412 49.8786 179.628C49.6764 179.843 49.5173 180.09 49.4013 180.369C49.2853 180.644 49.2273 180.934 49.2273 181.239C49.2273 181.643 49.3217 182.021 49.5107 182.372C49.7029 182.723 49.9647 183.007 50.2962 183.222C50.6309 183.438 51.0104 183.545 51.4347 183.545Z" fill="#333333"/>
<path d="M96.8722 184.5L101.426 175.491V175.412H96.1761V174.318H102.699V175.472L98.1648 184.5H96.8722Z" fill="#333333"/>
<path d="M147.315 184.639C146.633 184.639 146.029 184.518 145.506 184.276C144.985 184.031 144.579 183.695 144.288 183.267C143.996 182.836 143.852 182.346 143.855 181.795C143.852 181.365 143.936 180.967 144.109 180.602C144.281 180.234 144.516 179.928 144.815 179.683C145.116 179.434 145.453 179.277 145.824 179.21V179.151C145.337 179.025 144.949 178.751 144.661 178.33C144.372 177.906 144.23 177.424 144.233 176.884C144.23 176.366 144.361 175.904 144.626 175.496C144.891 175.089 145.255 174.767 145.719 174.532C146.187 174.297 146.719 174.179 147.315 174.179C147.905 174.179 148.432 174.297 148.896 174.532C149.36 174.767 149.725 175.089 149.99 175.496C150.259 175.904 150.394 176.366 150.398 176.884C150.394 177.424 150.247 177.906 149.955 178.33C149.667 178.751 149.284 179.025 148.807 179.151V179.21C149.175 179.277 149.506 179.434 149.801 179.683C150.096 179.928 150.331 180.234 150.507 180.602C150.683 180.967 150.772 181.365 150.776 181.795C150.772 182.346 150.623 182.836 150.328 183.267C150.036 183.695 149.63 184.031 149.11 184.276C148.593 184.518 147.995 184.639 147.315 184.639ZM147.315 183.545C147.776 183.545 148.174 183.471 148.509 183.322C148.843 183.173 149.102 182.962 149.284 182.69C149.466 182.419 149.559 182.1 149.562 181.736C149.559 181.351 149.46 181.012 149.264 180.717C149.069 180.422 148.802 180.19 148.464 180.021C148.129 179.852 147.746 179.767 147.315 179.767C146.881 179.767 146.493 179.852 146.152 180.021C145.814 180.19 145.547 180.422 145.352 180.717C145.159 181.012 145.065 181.351 145.068 181.736C145.065 182.1 145.153 182.419 145.332 182.69C145.514 182.962 145.774 183.173 146.112 183.322C146.45 183.471 146.851 183.545 147.315 183.545ZM147.315 178.713C147.68 178.713 148.003 178.64 148.285 178.494C148.57 178.348 148.794 178.145 148.956 177.883C149.118 177.621 149.201 177.314 149.205 176.963C149.201 176.618 149.12 176.318 148.961 176.063C148.802 175.805 148.581 175.606 148.3 175.467C148.018 175.324 147.69 175.253 147.315 175.253C146.934 175.253 146.601 175.324 146.316 175.467C146.031 175.606 145.811 175.805 145.655 176.063C145.499 176.318 145.423 176.618 145.426 176.963C145.423 177.314 145.501 177.621 145.66 177.883C145.822 178.145 146.046 178.348 146.331 178.494C146.616 178.64 146.944 178.713 147.315 178.713Z" fill="#333333"/>
<path d="M195.295 174.179C195.713 174.182 196.131 174.262 196.548 174.418C196.966 174.573 197.347 174.832 197.692 175.193C198.036 175.551 198.313 176.04 198.522 176.66C198.731 177.28 198.835 178.057 198.835 178.991C198.835 179.896 198.749 180.7 198.577 181.403C198.408 182.102 198.162 182.692 197.841 183.173C197.523 183.653 197.135 184.018 196.678 184.266C196.223 184.515 195.71 184.639 195.136 184.639C194.566 184.639 194.058 184.527 193.61 184.301C193.166 184.072 192.801 183.756 192.516 183.352C192.235 182.944 192.054 182.472 191.974 181.935H193.188C193.297 182.402 193.514 182.788 193.839 183.093C194.167 183.395 194.599 183.545 195.136 183.545C195.922 183.545 196.542 183.202 196.996 182.516C197.453 181.83 197.682 180.861 197.682 179.608H197.602C197.417 179.886 197.196 180.127 196.941 180.329C196.686 180.531 196.402 180.687 196.091 180.796C195.779 180.906 195.448 180.96 195.097 180.96C194.513 180.96 193.978 180.816 193.491 180.528C193.007 180.236 192.619 179.837 192.327 179.33C192.039 178.819 191.895 178.236 191.895 177.58C191.895 176.956 192.034 176.386 192.312 175.869C192.594 175.349 192.989 174.935 193.496 174.626C194.006 174.318 194.606 174.169 195.295 174.179ZM195.295 175.273C194.878 175.273 194.502 175.377 194.167 175.586C193.835 175.791 193.572 176.07 193.376 176.421C193.184 176.769 193.088 177.155 193.088 177.58C193.088 178.004 193.181 178.39 193.366 178.738C193.555 179.083 193.812 179.358 194.137 179.563C194.465 179.765 194.838 179.866 195.256 179.866C195.571 179.866 195.864 179.805 196.136 179.683C196.407 179.557 196.644 179.386 196.847 179.17C197.052 178.952 197.213 178.705 197.329 178.43C197.445 178.151 197.503 177.861 197.503 177.56C197.503 177.162 197.407 176.789 197.214 176.441C197.026 176.093 196.764 175.811 196.429 175.596C196.098 175.38 195.72 175.273 195.295 175.273Z" fill="#333333"/>
<path d="M240.134 174.318V184.5H238.901V175.611H238.841L236.355 177.261V176.009L238.901 174.318H240.134ZM246.383 184.639C245.634 184.639 244.996 184.435 244.469 184.028C243.942 183.617 243.539 183.022 243.261 182.243C242.982 181.461 242.843 180.516 242.843 179.409C242.843 178.309 242.982 177.369 243.261 176.59C243.542 175.808 243.947 175.211 244.474 174.8C245.004 174.386 245.64 174.179 246.383 174.179C247.125 174.179 247.76 174.386 248.287 174.8C248.817 175.211 249.222 175.808 249.5 176.59C249.782 177.369 249.923 178.309 249.923 179.409C249.923 180.516 249.783 181.461 249.505 182.243C249.227 183.022 248.824 183.617 248.297 184.028C247.77 184.435 247.132 184.639 246.383 184.639ZM246.383 183.545C247.125 183.545 247.702 183.187 248.113 182.472C248.524 181.756 248.729 180.735 248.729 179.409C248.729 178.527 248.635 177.777 248.446 177.157C248.26 176.537 247.992 176.065 247.641 175.74C247.293 175.415 246.873 175.253 246.383 175.253C245.647 175.253 245.072 175.616 244.658 176.342C244.243 177.064 244.036 178.087 244.036 179.409C244.036 180.291 244.129 181.04 244.315 181.656C244.5 182.273 244.767 182.742 245.115 183.063C245.466 183.385 245.889 183.545 246.383 183.545Z" fill="#333333"/>
<path d="M289.134 174.318V184.5H287.901V175.611H287.841L285.355 177.261V176.009L287.901 174.318H289.134ZM295.641 174.318V184.5H294.408V175.611H294.349L291.863 177.261V176.009L294.408 174.318H295.641Z" fill="#333333"/>
<path d="M336.634 174.318V184.5H335.401V175.611H335.341L332.855 177.261V176.009L335.401 174.318H336.634ZM339.562 184.5V183.605L342.923 179.926C343.317 179.495 343.642 179.121 343.897 178.803C344.152 178.481 344.341 178.179 344.464 177.898C344.59 177.613 344.653 177.314 344.653 177.003C344.653 176.645 344.567 176.335 344.394 176.073C344.225 175.811 343.993 175.609 343.698 175.467C343.403 175.324 343.072 175.253 342.704 175.253C342.313 175.253 341.971 175.334 341.68 175.496C341.391 175.656 341.168 175.879 341.009 176.168C340.853 176.456 340.775 176.794 340.775 177.182H339.602C339.602 176.585 339.739 176.062 340.014 175.611C340.289 175.16 340.664 174.809 341.138 174.557C341.615 174.305 342.15 174.179 342.744 174.179C343.34 174.179 343.869 174.305 344.33 174.557C344.79 174.809 345.152 175.148 345.413 175.576C345.675 176.004 345.806 176.479 345.806 177.003C345.806 177.377 345.738 177.744 345.602 178.102C345.47 178.456 345.238 178.852 344.906 179.29C344.578 179.724 344.122 180.254 343.539 180.881L341.252 183.327V183.406H345.985V184.5H339.562Z" fill="#333333"/>
</g>
<g clip-path="url(#clip4_315_2607)">
<rect width="336" height="48" transform="translate(27.5 203)" fill="white"/>
<path d="M48.1335 222.318V232.5H46.9006V223.611H46.8409L44.3551 225.261V224.009L46.9006 222.318H48.1335ZM54.5021 232.639C53.8459 232.639 53.2609 232.527 52.7472 232.301C52.2367 232.076 51.8307 231.763 51.5291 231.362C51.2308 230.957 51.0684 230.488 51.0419 229.955H52.2947C52.3213 230.283 52.4339 230.566 52.6328 230.805C52.8317 231.04 53.0919 231.222 53.4134 231.352C53.7348 231.481 54.0911 231.545 54.4822 231.545C54.9197 231.545 55.3075 231.469 55.6456 231.317C55.9837 231.164 56.2488 230.952 56.4411 230.68C56.6333 230.409 56.7294 230.094 56.7294 229.736C56.7294 229.361 56.6366 229.031 56.451 228.746C56.2654 228.458 55.9936 228.233 55.6357 228.07C55.2777 227.908 54.8402 227.827 54.3232 227.827H53.5078V226.733H54.3232C54.7275 226.733 55.0821 226.66 55.3871 226.514C55.6953 226.368 55.9356 226.163 56.108 225.898C56.2836 225.633 56.3714 225.321 56.3714 224.963C56.3714 224.618 56.2952 224.318 56.1428 224.063C55.9903 223.808 55.7749 223.609 55.4964 223.467C55.2214 223.324 54.8965 223.253 54.522 223.253C54.1707 223.253 53.8393 223.317 53.5277 223.447C53.2195 223.573 52.9676 223.757 52.772 223.999C52.5765 224.237 52.4704 224.526 52.4538 224.864H51.2607C51.2805 224.33 51.4413 223.863 51.7429 223.462C52.0445 223.057 52.4389 222.742 52.9261 222.517C53.4167 222.292 53.9553 222.179 54.5419 222.179C55.1716 222.179 55.7119 222.307 56.1626 222.562C56.6134 222.814 56.9598 223.147 57.2017 223.561C57.4437 223.975 57.5646 224.423 57.5646 224.903C57.5646 225.477 57.4138 225.966 57.1122 226.37C56.8139 226.774 56.4079 227.054 55.8942 227.21V227.29C56.5372 227.396 57.0393 227.669 57.4006 228.11C57.7618 228.548 57.9425 229.089 57.9425 229.736C57.9425 230.289 57.7917 230.786 57.4901 231.227C57.1918 231.665 56.7841 232.009 56.267 232.261C55.75 232.513 55.1617 232.639 54.5021 232.639Z" fill="#333333"/>
<path d="M96.1335 222.318V232.5H94.9006V223.611H94.8409L92.3551 225.261V224.009L94.9006 222.318H96.1335ZM98.8232 230.412V229.398L103.298 222.318H104.033V223.889H103.536L100.156 229.239V229.318H106.181V230.412H98.8232ZM103.616 232.5V230.104V229.631V222.318H104.789V232.5H103.616Z" fill="#333333"/>
<path d="M144.134 222.318V232.5H142.901V223.611H142.841L140.355 225.261V224.009L142.901 222.318H144.134ZM150.244 232.639C149.66 232.639 149.135 232.523 148.668 232.291C148.2 232.059 147.826 231.741 147.544 231.337C147.262 230.932 147.108 230.472 147.082 229.955H148.275C148.321 230.415 148.53 230.796 148.901 231.098C149.276 231.396 149.723 231.545 150.244 231.545C150.661 231.545 151.032 231.448 151.357 231.252C151.685 231.057 151.942 230.788 152.128 230.447C152.317 230.102 152.411 229.713 152.411 229.278C152.411 228.834 152.313 228.438 152.118 228.09C151.926 227.739 151.661 227.462 151.322 227.26C150.984 227.058 150.598 226.955 150.164 226.952C149.853 226.948 149.533 226.996 149.205 227.096C148.876 227.192 148.606 227.316 148.394 227.469L147.241 227.33L147.857 222.318H153.147V223.412H148.891L148.533 226.415H148.593C148.802 226.249 149.064 226.112 149.379 226.002C149.693 225.893 150.022 225.838 150.363 225.838C150.986 225.838 151.541 225.987 152.028 226.286C152.519 226.58 152.903 226.985 153.182 227.499C153.464 228.012 153.604 228.599 153.604 229.259C153.604 229.908 153.459 230.488 153.167 230.999C152.879 231.506 152.481 231.907 151.974 232.202C151.467 232.493 150.89 232.639 150.244 232.639Z" fill="#333333"/>
<path d="M192.134 222.318V232.5H190.901V223.611H190.841L188.355 225.261V224.009L190.901 222.318H192.134ZM198.442 232.639C198.025 232.633 197.607 232.553 197.19 232.401C196.772 232.248 196.391 231.991 196.046 231.63C195.701 231.265 195.425 230.773 195.216 230.153C195.007 229.53 194.903 228.748 194.903 227.807C194.903 226.905 194.987 226.107 195.156 225.411C195.325 224.711 195.571 224.123 195.892 223.646C196.214 223.165 196.601 222.8 197.055 222.552C197.513 222.303 198.028 222.179 198.602 222.179C199.172 222.179 199.679 222.293 200.123 222.522C200.57 222.747 200.935 223.062 201.217 223.467C201.498 223.871 201.681 224.337 201.763 224.864H200.55C200.438 224.406 200.219 224.027 199.894 223.725C199.569 223.424 199.138 223.273 198.602 223.273C197.813 223.273 197.191 223.616 196.737 224.302C196.286 224.988 196.059 225.951 196.056 227.19H196.136C196.321 226.909 196.542 226.668 196.797 226.469C197.055 226.267 197.34 226.112 197.652 226.002C197.964 225.893 198.293 225.838 198.641 225.838C199.225 225.838 199.758 225.984 200.242 226.276C200.726 226.564 201.114 226.963 201.406 227.474C201.697 227.981 201.843 228.562 201.843 229.219C201.843 229.848 201.702 230.425 201.42 230.949C201.139 231.469 200.743 231.884 200.232 232.192C199.725 232.497 199.129 232.646 198.442 232.639ZM198.442 231.545C198.86 231.545 199.235 231.441 199.566 231.232C199.901 231.023 200.164 230.743 200.357 230.392C200.552 230.041 200.65 229.65 200.65 229.219C200.65 228.798 200.555 228.415 200.366 228.07C200.181 227.722 199.924 227.446 199.596 227.24C199.271 227.035 198.9 226.932 198.482 226.932C198.167 226.932 197.874 226.995 197.602 227.121C197.33 227.243 197.092 227.412 196.886 227.628C196.684 227.843 196.525 228.09 196.409 228.369C196.293 228.644 196.235 228.934 196.235 229.239C196.235 229.643 196.33 230.021 196.518 230.372C196.711 230.723 196.973 231.007 197.304 231.222C197.639 231.438 198.018 231.545 198.442 231.545Z" fill="#333333"/>
<path d="M240.634 222.318V232.5H239.401V223.611H239.341L236.855 225.261V224.009L239.401 222.318H240.634ZM243.88 232.5L248.434 223.491V223.412H243.184V222.318H249.707V223.472L245.173 232.5H243.88Z" fill="#333333"/>
<path d="M288.134 222.318V232.5H286.901V223.611H286.841L284.355 225.261V224.009L286.901 222.318H288.134ZM294.323 232.639C293.64 232.639 293.037 232.518 292.513 232.276C291.993 232.031 291.587 231.695 291.295 231.267C291.004 230.836 290.86 230.346 290.863 229.795C290.86 229.365 290.944 228.967 291.116 228.602C291.289 228.234 291.524 227.928 291.822 227.683C292.124 227.434 292.46 227.277 292.832 227.21V227.151C292.344 227.025 291.957 226.751 291.668 226.33C291.38 225.906 291.237 225.424 291.241 224.884C291.237 224.366 291.368 223.904 291.634 223.496C291.899 223.089 292.263 222.767 292.727 222.532C293.195 222.297 293.727 222.179 294.323 222.179C294.913 222.179 295.44 222.297 295.904 222.532C296.368 222.767 296.733 223.089 296.998 223.496C297.266 223.904 297.402 224.366 297.406 224.884C297.402 225.424 297.255 225.906 296.963 226.33C296.675 226.751 296.292 227.025 295.815 227.151V227.21C296.183 227.277 296.514 227.434 296.809 227.683C297.104 227.928 297.339 228.234 297.515 228.602C297.691 228.967 297.78 229.365 297.783 229.795C297.78 230.346 297.631 230.836 297.336 231.267C297.044 231.695 296.638 232.031 296.118 232.276C295.601 232.518 295.003 232.639 294.323 232.639ZM294.323 231.545C294.784 231.545 295.182 231.471 295.516 231.322C295.851 231.173 296.11 230.962 296.292 230.69C296.474 230.419 296.567 230.1 296.57 229.736C296.567 229.351 296.468 229.012 296.272 228.717C296.076 228.422 295.81 228.19 295.472 228.021C295.137 227.852 294.754 227.767 294.323 227.767C293.889 227.767 293.501 227.852 293.16 228.021C292.822 228.19 292.555 228.422 292.359 228.717C292.167 229.012 292.073 229.351 292.076 229.736C292.073 230.1 292.161 230.419 292.339 230.69C292.522 230.962 292.782 231.173 293.12 231.322C293.458 231.471 293.859 231.545 294.323 231.545ZM294.323 226.713C294.688 226.713 295.011 226.64 295.293 226.494C295.578 226.348 295.801 226.145 295.964 225.883C296.126 225.621 296.209 225.314 296.212 224.963C296.209 224.618 296.128 224.318 295.969 224.063C295.81 223.805 295.589 223.606 295.308 223.467C295.026 223.324 294.698 223.253 294.323 223.253C293.942 223.253 293.609 223.324 293.324 223.467C293.039 223.606 292.818 223.805 292.663 224.063C292.507 224.318 292.431 224.618 292.434 224.963C292.431 225.314 292.509 225.621 292.668 225.883C292.83 226.145 293.054 226.348 293.339 226.494C293.624 226.64 293.952 226.713 294.323 226.713Z" fill="#333333"/>
<path d="M336.134 222.318V232.5H334.901V223.611H334.841L332.355 225.261V224.009L334.901 222.318H336.134ZM342.303 222.179C342.721 222.182 343.138 222.262 343.556 222.418C343.974 222.573 344.355 222.832 344.7 223.193C345.044 223.551 345.321 224.04 345.53 224.66C345.739 225.28 345.843 226.057 345.843 226.991C345.843 227.896 345.757 228.7 345.585 229.403C345.415 230.102 345.17 230.692 344.849 231.173C344.531 231.653 344.143 232.018 343.685 232.266C343.231 232.515 342.718 232.639 342.144 232.639C341.574 232.639 341.065 232.527 340.618 232.301C340.174 232.072 339.809 231.756 339.524 231.352C339.242 230.944 339.062 230.472 338.982 229.935H340.195C340.305 230.402 340.522 230.788 340.847 231.093C341.175 231.395 341.607 231.545 342.144 231.545C342.93 231.545 343.549 231.202 344.004 230.516C344.461 229.83 344.69 228.861 344.69 227.608H344.61C344.424 227.886 344.204 228.127 343.949 228.329C343.694 228.531 343.41 228.687 343.099 228.796C342.787 228.906 342.456 228.96 342.104 228.96C341.521 228.96 340.986 228.816 340.499 228.528C340.015 228.236 339.627 227.837 339.335 227.33C339.047 226.819 338.903 226.236 338.903 225.58C338.903 224.956 339.042 224.386 339.32 223.869C339.602 223.349 339.996 222.935 340.504 222.626C341.014 222.318 341.614 222.169 342.303 222.179ZM342.303 223.273C341.886 223.273 341.509 223.377 341.175 223.586C340.843 223.791 340.58 224.07 340.384 224.421C340.192 224.769 340.096 225.155 340.096 225.58C340.096 226.004 340.189 226.39 340.374 226.738C340.563 227.083 340.82 227.358 341.145 227.563C341.473 227.765 341.846 227.866 342.263 227.866C342.578 227.866 342.872 227.805 343.143 227.683C343.415 227.557 343.652 227.386 343.854 227.17C344.06 226.952 344.221 226.705 344.337 226.43C344.453 226.151 344.511 225.861 344.511 225.56C344.511 225.162 344.415 224.789 344.222 224.441C344.033 224.093 343.772 223.811 343.437 223.596C343.105 223.38 342.728 223.273 342.303 223.273Z" fill="#333333"/>
</g>
<g clip-path="url(#clip5_315_2607)">
<rect width="336" height="48" transform="translate(27.5 251)" fill="white"/>
<path d="M43.554 280.5V279.605L46.9148 275.926C47.3092 275.495 47.634 275.121 47.8892 274.803C48.1444 274.481 48.3333 274.179 48.456 273.898C48.5819 273.613 48.6449 273.314 48.6449 273.003C48.6449 272.645 48.5587 272.335 48.3864 272.073C48.2173 271.811 47.9853 271.609 47.6903 271.467C47.3954 271.324 47.0639 271.253 46.696 271.253C46.3049 271.253 45.9635 271.334 45.6719 271.496C45.3835 271.656 45.1598 271.879 45.0007 272.168C44.8449 272.456 44.767 272.794 44.767 273.182H43.5938C43.5938 272.585 43.7313 272.062 44.0064 271.611C44.2815 271.16 44.656 270.809 45.13 270.557C45.6072 270.305 46.1425 270.179 46.7358 270.179C47.3324 270.179 47.861 270.305 48.3217 270.557C48.7824 270.809 49.1437 271.148 49.4055 271.576C49.6674 272.004 49.7983 272.479 49.7983 273.003C49.7983 273.377 49.7304 273.744 49.5945 274.102C49.4619 274.456 49.2299 274.852 48.8984 275.29C48.5703 275.724 48.1146 276.254 47.5312 276.881L45.2443 279.327V279.406H49.9773V280.5H43.554ZM55.3516 280.639C54.6025 280.639 53.9645 280.435 53.4375 280.028C52.9105 279.617 52.5078 279.022 52.2294 278.243C51.951 277.461 51.8118 276.516 51.8118 275.409C51.8118 274.309 51.951 273.369 52.2294 272.59C52.5111 271.808 52.9155 271.211 53.4425 270.8C53.9728 270.386 54.6091 270.179 55.3516 270.179C56.094 270.179 56.7287 270.386 57.2557 270.8C57.786 271.211 58.1903 271.808 58.4688 272.59C58.7505 273.369 58.8913 274.309 58.8913 275.409C58.8913 276.516 58.7521 277.461 58.4737 278.243C58.1953 279.022 57.7926 279.617 57.2656 280.028C56.7386 280.435 56.1006 280.639 55.3516 280.639ZM55.3516 279.545C56.094 279.545 56.6707 279.187 57.0817 278.472C57.4927 277.756 57.6982 276.735 57.6982 275.409C57.6982 274.527 57.6037 273.777 57.4148 273.157C57.2292 272.537 56.9607 272.065 56.6094 271.74C56.2614 271.415 55.8421 271.253 55.3516 271.253C54.6158 271.253 54.0407 271.616 53.6264 272.342C53.2121 273.064 53.005 274.087 53.005 275.409C53.005 276.291 53.0978 277.04 53.2834 277.656C53.469 278.273 53.7358 278.742 54.0838 279.063C54.4351 279.385 54.8577 279.545 55.3516 279.545Z" fill="#333333"/>
<path d="M93.054 280.5V279.605L96.4148 275.926C96.8092 275.495 97.134 275.121 97.3892 274.803C97.6444 274.481 97.8333 274.179 97.956 273.898C98.0819 273.613 98.1449 273.314 98.1449 273.003C98.1449 272.645 98.0587 272.335 97.8864 272.073C97.7173 271.811 97.4853 271.609 97.1903 271.467C96.8954 271.324 96.5639 271.253 96.196 271.253C95.8049 271.253 95.4635 271.334 95.1719 271.496C94.8835 271.656 94.6598 271.879 94.5007 272.168C94.3449 272.456 94.267 272.794 94.267 273.182H93.0938C93.0938 272.585 93.2313 272.062 93.5064 271.611C93.7815 271.16 94.156 270.809 94.63 270.557C95.1072 270.305 95.6425 270.179 96.2358 270.179C96.8324 270.179 97.361 270.305 97.8217 270.557C98.2824 270.809 98.6437 271.148 98.9055 271.576C99.1674 272.004 99.2983 272.479 99.2983 273.003C99.2983 273.377 99.2304 273.744 99.0945 274.102C98.9619 274.456 98.7299 274.852 98.3984 275.29C98.0703 275.724 97.6146 276.254 97.0312 276.881L94.7443 279.327V279.406H99.4773V280.5H93.054ZM105.11 270.318V280.5H103.877V271.611H103.817L101.332 273.261V272.009L103.877 270.318H105.11Z" fill="#333333"/>
<path d="M140.054 280.5V279.605L143.415 275.926C143.809 275.495 144.134 275.121 144.389 274.803C144.644 274.481 144.833 274.179 144.956 273.898C145.082 273.613 145.145 273.314 145.145 273.003C145.145 272.645 145.059 272.335 144.886 272.073C144.717 271.811 144.485 271.609 144.19 271.467C143.895 271.324 143.564 271.253 143.196 271.253C142.805 271.253 142.464 271.334 142.172 271.496C141.884 271.656 141.66 271.879 141.501 272.168C141.345 272.456 141.267 272.794 141.267 273.182H140.094C140.094 272.585 140.231 272.062 140.506 271.611C140.781 271.16 141.156 270.809 141.63 270.557C142.107 270.305 142.643 270.179 143.236 270.179C143.832 270.179 144.361 270.305 144.822 270.557C145.282 270.809 145.644 271.148 145.906 271.576C146.167 272.004 146.298 272.479 146.298 273.003C146.298 273.377 146.23 273.744 146.094 274.102C145.962 274.456 145.73 274.852 145.398 275.29C145.07 275.724 144.615 276.254 144.031 276.881L141.744 279.327V279.406H146.477V280.5H140.054ZM148.531 280.5V279.605L151.891 275.926C152.286 275.495 152.611 275.121 152.866 274.803C153.121 274.481 153.31 274.179 153.433 273.898C153.558 273.613 153.621 273.314 153.621 273.003C153.621 272.645 153.535 272.335 153.363 272.073C153.194 271.811 152.962 271.609 152.667 271.467C152.372 271.324 152.04 271.253 151.673 271.253C151.281 271.253 150.94 271.334 150.648 271.496C150.36 271.656 150.136 271.879 149.977 272.168C149.821 272.456 149.744 272.794 149.744 273.182H148.57C148.57 272.585 148.708 272.062 148.983 271.611C149.258 271.16 149.633 270.809 150.107 270.557C150.584 270.305 151.119 270.179 151.712 270.179C152.309 270.179 152.838 270.305 153.298 270.557C153.759 270.809 154.12 271.148 154.382 271.576C154.644 272.004 154.775 272.479 154.775 273.003C154.775 273.377 154.707 273.744 154.571 274.102C154.438 274.456 154.206 274.852 153.875 275.29C153.547 275.724 153.091 276.254 152.508 276.881L150.221 279.327V279.406H154.954V280.5H148.531Z" fill="#333333"/>
<path d="M187.554 280.5V279.605L190.915 275.926C191.309 275.495 191.634 275.121 191.889 274.803C192.144 274.481 192.333 274.179 192.456 273.898C192.582 273.613 192.645 273.314 192.645 273.003C192.645 272.645 192.559 272.335 192.386 272.073C192.217 271.811 191.985 271.609 191.69 271.467C191.395 271.324 191.064 271.253 190.696 271.253C190.305 271.253 189.964 271.334 189.672 271.496C189.384 271.656 189.16 271.879 189.001 272.168C188.845 272.456 188.767 272.794 188.767 273.182H187.594C187.594 272.585 187.731 272.062 188.006 271.611C188.281 271.16 188.656 270.809 189.13 270.557C189.607 270.305 190.143 270.179 190.736 270.179C191.332 270.179 191.861 270.305 192.322 270.557C192.782 270.809 193.144 271.148 193.406 271.576C193.667 272.004 193.798 272.479 193.798 273.003C193.798 273.377 193.73 273.744 193.594 274.102C193.462 274.456 193.23 274.852 192.898 275.29C192.57 275.724 192.115 276.254 191.531 276.881L189.244 279.327V279.406H193.977V280.5H187.554ZM199.471 280.639C198.815 280.639 198.23 280.527 197.716 280.301C197.205 280.076 196.799 279.763 196.498 279.362C196.2 278.957 196.037 278.488 196.011 277.955H197.263C197.29 278.283 197.403 278.566 197.602 278.805C197.8 279.04 198.061 279.222 198.382 279.352C198.704 279.481 199.06 279.545 199.451 279.545C199.888 279.545 200.276 279.469 200.614 279.317C200.952 279.164 201.218 278.952 201.41 278.68C201.602 278.409 201.698 278.094 201.698 277.736C201.698 277.361 201.605 277.031 201.42 276.746C201.234 276.458 200.962 276.233 200.604 276.07C200.246 275.908 199.809 275.827 199.292 275.827H198.477V274.733H199.292C199.696 274.733 200.051 274.66 200.356 274.514C200.664 274.368 200.904 274.163 201.077 273.898C201.252 273.633 201.34 273.321 201.34 272.963C201.34 272.618 201.264 272.318 201.112 272.063C200.959 271.808 200.744 271.609 200.465 271.467C200.19 271.324 199.865 271.253 199.491 271.253C199.139 271.253 198.808 271.317 198.496 271.447C198.188 271.573 197.936 271.757 197.741 271.999C197.545 272.237 197.439 272.526 197.423 272.864H196.229C196.249 272.33 196.41 271.863 196.712 271.462C197.013 271.057 197.408 270.742 197.895 270.517C198.385 270.292 198.924 270.179 199.511 270.179C200.14 270.179 200.681 270.307 201.131 270.562C201.582 270.814 201.929 271.147 202.17 271.561C202.412 271.975 202.533 272.423 202.533 272.903C202.533 273.477 202.383 273.966 202.081 274.37C201.783 274.774 201.377 275.054 200.863 275.21V275.29C201.506 275.396 202.008 275.669 202.369 276.11C202.731 276.548 202.911 277.089 202.911 277.736C202.911 278.289 202.76 278.786 202.459 279.227C202.161 279.665 201.753 280.009 201.236 280.261C200.719 280.513 200.13 280.639 199.471 280.639Z" fill="#333333"/>
<path d="M235.554 280.5V279.605L238.915 275.926C239.309 275.495 239.634 275.121 239.889 274.803C240.144 274.481 240.333 274.179 240.456 273.898C240.582 273.613 240.645 273.314 240.645 273.003C240.645 272.645 240.559 272.335 240.386 272.073C240.217 271.811 239.985 271.609 239.69 271.467C239.395 271.324 239.064 271.253 238.696 271.253C238.305 271.253 237.964 271.334 237.672 271.496C237.384 271.656 237.16 271.879 237.001 272.168C236.845 272.456 236.767 272.794 236.767 273.182H235.594C235.594 272.585 235.731 272.062 236.006 271.611C236.281 271.16 236.656 270.809 237.13 270.557C237.607 270.305 238.143 270.179 238.736 270.179C239.332 270.179 239.861 270.305 240.322 270.557C240.782 270.809 241.144 271.148 241.406 271.576C241.667 272.004 241.798 272.479 241.798 273.003C241.798 273.377 241.73 273.744 241.594 274.102C241.462 274.456 241.23 274.852 240.898 275.29C240.57 275.724 240.115 276.254 239.531 276.881L237.244 279.327V279.406H241.977V280.5H235.554ZM243.573 278.412V277.398L248.048 270.318H248.783V271.889H248.286L244.906 277.239V277.318H250.931V278.412H243.573ZM248.366 280.5V278.104V277.631V270.318H249.539V280.5H248.366Z" fill="#333333"/>
<path d="M284.054 280.5V279.605L287.415 275.926C287.809 275.495 288.134 275.121 288.389 274.803C288.644 274.481 288.833 274.179 288.956 273.898C289.082 273.613 289.145 273.314 289.145 273.003C289.145 272.645 289.059 272.335 288.886 272.073C288.717 271.811 288.485 271.609 288.19 271.467C287.895 271.324 287.564 271.253 287.196 271.253C286.805 271.253 286.464 271.334 286.172 271.496C285.884 271.656 285.66 271.879 285.501 272.168C285.345 272.456 285.267 272.794 285.267 273.182H284.094C284.094 272.585 284.231 272.062 284.506 271.611C284.781 271.16 285.156 270.809 285.63 270.557C286.107 270.305 286.643 270.179 287.236 270.179C287.832 270.179 288.361 270.305 288.822 270.557C289.282 270.809 289.644 271.148 289.906 271.576C290.167 272.004 290.298 272.479 290.298 273.003C290.298 273.377 290.23 273.744 290.094 274.102C289.962 274.456 289.73 274.852 289.398 275.29C289.07 275.724 288.615 276.254 288.031 276.881L285.744 279.327V279.406H290.477V280.5H284.054ZM295.712 280.639C295.129 280.639 294.604 280.523 294.136 280.291C293.669 280.059 293.295 279.741 293.013 279.337C292.731 278.932 292.577 278.472 292.55 277.955H293.744C293.79 278.415 293.999 278.796 294.37 279.098C294.745 279.396 295.192 279.545 295.712 279.545C296.13 279.545 296.501 279.448 296.826 279.252C297.154 279.057 297.411 278.788 297.597 278.447C297.786 278.102 297.88 277.713 297.88 277.278C297.88 276.834 297.782 276.438 297.587 276.09C297.394 275.739 297.129 275.462 296.791 275.26C296.453 275.058 296.067 274.955 295.633 274.952C295.321 274.948 295.001 274.996 294.673 275.096C294.345 275.192 294.075 275.316 293.863 275.469L292.71 275.33L293.326 270.318H298.616V271.412H294.36L294.002 274.415H294.062C294.271 274.249 294.532 274.112 294.847 274.002C295.162 273.893 295.49 273.838 295.832 273.838C296.455 273.838 297.01 273.987 297.497 274.286C297.988 274.58 298.372 274.985 298.651 275.499C298.932 276.012 299.073 276.599 299.073 277.259C299.073 277.908 298.927 278.488 298.636 278.999C298.347 279.506 297.95 279.907 297.442 280.202C296.935 280.493 296.359 280.639 295.712 280.639Z" fill="#333333"/>
<path d="M331.554 280.5V279.605L334.915 275.926C335.309 275.495 335.634 275.121 335.889 274.803C336.144 274.481 336.333 274.179 336.456 273.898C336.582 273.613 336.645 273.314 336.645 273.003C336.645 272.645 336.559 272.335 336.386 272.073C336.217 271.811 335.985 271.609 335.69 271.467C335.395 271.324 335.064 271.253 334.696 271.253C334.305 271.253 333.964 271.334 333.672 271.496C333.384 271.656 333.16 271.879 333.001 272.168C332.845 272.456 332.767 272.794 332.767 273.182H331.594C331.594 272.585 331.731 272.062 332.006 271.611C332.281 271.16 332.656 270.809 333.13 270.557C333.607 270.305 334.143 270.179 334.736 270.179C335.332 270.179 335.861 270.305 336.322 270.557C336.782 270.809 337.144 271.148 337.406 271.576C337.667 272.004 337.798 272.479 337.798 273.003C337.798 273.377 337.73 273.744 337.594 274.102C337.462 274.456 337.23 274.852 336.898 275.29C336.57 275.724 336.115 276.254 335.531 276.881L333.244 279.327V279.406H337.977V280.5H331.554ZM343.411 280.639C342.994 280.633 342.576 280.553 342.158 280.401C341.741 280.248 341.36 279.991 341.015 279.63C340.67 279.265 340.393 278.773 340.185 278.153C339.976 277.53 339.871 276.748 339.871 275.807C339.871 274.905 339.956 274.107 340.125 273.411C340.294 272.711 340.539 272.123 340.861 271.646C341.182 271.165 341.57 270.8 342.024 270.552C342.482 270.303 342.997 270.179 343.57 270.179C344.14 270.179 344.647 270.293 345.092 270.522C345.539 270.747 345.904 271.062 346.185 271.467C346.467 271.871 346.649 272.337 346.732 272.864H345.519C345.406 272.406 345.188 272.027 344.863 271.725C344.538 271.424 344.107 271.273 343.57 271.273C342.781 271.273 342.16 271.616 341.706 272.302C341.255 272.988 341.028 273.951 341.025 275.19H341.104C341.29 274.909 341.51 274.668 341.766 274.469C342.024 274.267 342.309 274.112 342.621 274.002C342.932 273.893 343.262 273.838 343.61 273.838C344.193 273.838 344.727 273.984 345.211 274.276C345.695 274.564 346.083 274.963 346.374 275.474C346.666 275.981 346.812 276.562 346.812 277.219C346.812 277.848 346.671 278.425 346.389 278.949C346.107 279.469 345.711 279.884 345.201 280.192C344.694 280.497 344.097 280.646 343.411 280.639ZM343.411 279.545C343.829 279.545 344.203 279.441 344.535 279.232C344.87 279.023 345.133 278.743 345.325 278.392C345.521 278.041 345.619 277.65 345.619 277.219C345.619 276.798 345.524 276.415 345.335 276.07C345.15 275.722 344.893 275.446 344.565 275.24C344.24 275.035 343.869 274.932 343.451 274.932C343.136 274.932 342.843 274.995 342.571 275.121C342.299 275.243 342.061 275.412 341.855 275.628C341.653 275.843 341.494 276.09 341.378 276.369C341.262 276.644 341.204 276.934 341.204 277.239C341.204 277.643 341.298 278.021 341.487 278.372C341.679 278.723 341.941 279.007 342.273 279.222C342.607 279.438 342.987 279.545 343.411 279.545Z" fill="#333333"/>
</g>
<g clip-path="url(#clip6_315_2607)">
<rect width="336" height="48" transform="translate(27.5 299)" fill="white"/>
<path d="M44.054 328.5V327.605L47.4148 323.926C47.8092 323.495 48.134 323.121 48.3892 322.803C48.6444 322.481 48.8333 322.179 48.956 321.898C49.0819 321.613 49.1449 321.314 49.1449 321.003C49.1449 320.645 49.0587 320.335 48.8864 320.073C48.7173 319.811 48.4853 319.609 48.1903 319.467C47.8954 319.324 47.5639 319.253 47.196 319.253C46.8049 319.253 46.4635 319.334 46.1719 319.496C45.8835 319.656 45.6598 319.879 45.5007 320.168C45.3449 320.456 45.267 320.794 45.267 321.182H44.0938C44.0938 320.585 44.2313 320.062 44.5064 319.611C44.7815 319.16 45.156 318.809 45.63 318.557C46.1072 318.305 46.6425 318.179 47.2358 318.179C47.8324 318.179 48.361 318.305 48.8217 318.557C49.2824 318.809 49.6437 319.148 49.9055 319.576C50.1674 320.004 50.2983 320.479 50.2983 321.003C50.2983 321.377 50.2304 321.744 50.0945 322.102C49.9619 322.456 49.7299 322.852 49.3984 323.29C49.0703 323.724 48.6146 324.254 48.0312 324.881L45.7443 327.327V327.406H50.4773V328.5H44.054ZM52.8487 328.5L57.4027 319.491V319.412H52.1527V318.318H58.6754V319.472L54.1413 328.5H52.8487Z" fill="#333333"/>
<path d="M91.554 328.5V327.605L94.9148 323.926C95.3092 323.495 95.634 323.121 95.8892 322.803C96.1444 322.481 96.3333 322.179 96.456 321.898C96.5819 321.613 96.6449 321.314 96.6449 321.003C96.6449 320.645 96.5587 320.335 96.3864 320.073C96.2173 319.811 95.9853 319.609 95.6903 319.467C95.3954 319.324 95.0639 319.253 94.696 319.253C94.3049 319.253 93.9635 319.334 93.6719 319.496C93.3835 319.656 93.1598 319.879 93.0007 320.168C92.8449 320.456 92.767 320.794 92.767 321.182H91.5938C91.5938 320.585 91.7313 320.062 92.0064 319.611C92.2815 319.16 92.656 318.809 93.13 318.557C93.6072 318.305 94.1425 318.179 94.7358 318.179C95.3324 318.179 95.861 318.305 96.3217 318.557C96.7824 318.809 97.1437 319.148 97.4055 319.576C97.6674 320.004 97.7983 320.479 97.7983 321.003C97.7983 321.377 97.7304 321.744 97.5945 322.102C97.4619 322.456 97.2299 322.852 96.8984 323.29C96.5703 323.724 96.1146 324.254 95.5312 324.881L93.2443 327.327V327.406H97.9773V328.5H91.554ZM103.292 328.639C102.609 328.639 102.006 328.518 101.482 328.276C100.962 328.031 100.556 327.695 100.264 327.267C99.9725 326.836 99.8284 326.346 99.8317 325.795C99.8284 325.365 99.9129 324.967 100.085 324.602C100.258 324.234 100.493 323.928 100.791 323.683C101.093 323.434 101.429 323.277 101.8 323.21V323.151C101.313 323.025 100.925 322.751 100.637 322.33C100.349 321.906 100.206 321.424 100.21 320.884C100.206 320.366 100.337 319.904 100.602 319.496C100.867 319.089 101.232 318.767 101.696 318.532C102.163 318.297 102.695 318.179 103.292 318.179C103.882 318.179 104.409 318.297 104.873 318.532C105.337 318.767 105.701 319.089 105.967 319.496C106.235 319.904 106.371 320.366 106.374 320.884C106.371 321.424 106.223 321.906 105.932 322.33C105.643 322.751 105.261 323.025 104.783 323.151V323.21C105.151 323.277 105.483 323.434 105.778 323.683C106.073 323.928 106.308 324.234 106.484 324.602C106.659 324.967 106.749 325.365 106.752 325.795C106.749 326.346 106.6 326.836 106.305 327.267C106.013 327.695 105.607 328.031 105.087 328.276C104.57 328.518 103.971 328.639 103.292 328.639ZM103.292 327.545C103.753 327.545 104.15 327.471 104.485 327.322C104.82 327.173 105.078 326.962 105.261 326.69C105.443 326.419 105.536 326.1 105.539 325.736C105.536 325.351 105.436 325.012 105.241 324.717C105.045 324.422 104.778 324.19 104.44 324.021C104.106 323.852 103.723 323.767 103.292 323.767C102.858 323.767 102.47 323.852 102.129 324.021C101.79 324.19 101.524 324.422 101.328 324.717C101.136 325.012 101.041 325.351 101.045 325.736C101.041 326.1 101.129 326.419 101.308 326.69C101.491 326.962 101.751 327.173 102.089 327.322C102.427 327.471 102.828 327.545 103.292 327.545ZM103.292 322.713C103.656 322.713 103.98 322.64 104.261 322.494C104.546 322.348 104.77 322.145 104.933 321.883C105.095 321.621 105.178 321.314 105.181 320.963C105.178 320.618 105.097 320.318 104.938 320.063C104.778 319.805 104.558 319.606 104.276 319.467C103.995 319.324 103.666 319.253 103.292 319.253C102.911 319.253 102.578 319.324 102.293 319.467C102.008 319.606 101.787 319.805 101.631 320.063C101.476 320.318 101.399 320.618 101.403 320.963C101.399 321.314 101.477 321.621 101.636 321.883C101.799 322.145 102.022 322.348 102.308 322.494C102.593 322.64 102.921 322.713 103.292 322.713Z" fill="#333333"/>
<path d="M139.554 328.5V327.605L142.915 323.926C143.309 323.495 143.634 323.121 143.889 322.803C144.144 322.481 144.333 322.179 144.456 321.898C144.582 321.613 144.645 321.314 144.645 321.003C144.645 320.645 144.559 320.335 144.386 320.073C144.217 319.811 143.985 319.609 143.69 319.467C143.395 319.324 143.064 319.253 142.696 319.253C142.305 319.253 141.964 319.334 141.672 319.496C141.384 319.656 141.16 319.879 141.001 320.168C140.845 320.456 140.767 320.794 140.767 321.182H139.594C139.594 320.585 139.731 320.062 140.006 319.611C140.281 319.16 140.656 318.809 141.13 318.557C141.607 318.305 142.143 318.179 142.736 318.179C143.332 318.179 143.861 318.305 144.322 318.557C144.782 318.809 145.144 319.148 145.406 319.576C145.667 320.004 145.798 320.479 145.798 321.003C145.798 321.377 145.73 321.744 145.594 322.102C145.462 322.456 145.23 322.852 144.898 323.29C144.57 323.724 144.115 324.254 143.531 324.881L141.244 327.327V327.406H145.977V328.5H139.554ZM151.272 318.179C151.69 318.182 152.107 318.262 152.525 318.418C152.942 318.573 153.324 318.832 153.668 319.193C154.013 319.551 154.29 320.04 154.499 320.66C154.707 321.28 154.812 322.057 154.812 322.991C154.812 323.896 154.726 324.7 154.553 325.403C154.384 326.102 154.139 326.692 153.817 327.173C153.499 327.653 153.112 328.018 152.654 328.266C152.2 328.515 151.686 328.639 151.113 328.639C150.543 328.639 150.034 328.527 149.587 328.301C149.143 328.072 148.778 327.756 148.493 327.352C148.211 326.944 148.031 326.472 147.951 325.935H149.164C149.273 326.402 149.491 326.788 149.815 327.093C150.143 327.395 150.576 327.545 151.113 327.545C151.898 327.545 152.518 327.202 152.972 326.516C153.43 325.83 153.658 324.861 153.658 323.608H153.579C153.393 323.886 153.173 324.127 152.918 324.329C152.662 324.531 152.379 324.687 152.067 324.796C151.756 324.906 151.424 324.96 151.073 324.96C150.49 324.96 149.955 324.816 149.467 324.528C148.983 324.236 148.596 323.837 148.304 323.33C148.016 322.819 147.871 322.236 147.871 321.58C147.871 320.956 148.011 320.386 148.289 319.869C148.571 319.349 148.965 318.935 149.472 318.626C149.983 318.318 150.583 318.169 151.272 318.179ZM151.272 319.273C150.854 319.273 150.478 319.377 150.143 319.586C149.812 319.791 149.549 320.07 149.353 320.421C149.161 320.769 149.065 321.155 149.065 321.58C149.065 322.004 149.157 322.39 149.343 322.738C149.532 323.083 149.789 323.358 150.114 323.563C150.442 323.765 150.815 323.866 151.232 323.866C151.547 323.866 151.84 323.805 152.112 323.683C152.384 323.557 152.621 323.386 152.823 323.17C153.029 322.952 153.189 322.705 153.305 322.43C153.421 322.151 153.479 321.861 153.479 321.56C153.479 321.162 153.383 320.789 153.191 320.441C153.002 320.093 152.74 319.811 152.406 319.596C152.074 319.38 151.696 319.273 151.272 319.273Z" fill="#333333"/>
<path d="M190.994 328.639C190.338 328.639 189.753 328.527 189.239 328.301C188.729 328.076 188.323 327.763 188.021 327.362C187.723 326.957 187.561 326.488 187.534 325.955H188.787C188.813 326.283 188.926 326.566 189.125 326.805C189.324 327.04 189.584 327.222 189.906 327.352C190.227 327.481 190.583 327.545 190.974 327.545C191.412 327.545 191.8 327.469 192.138 327.317C192.476 327.164 192.741 326.952 192.933 326.68C193.125 326.409 193.222 326.094 193.222 325.736C193.222 325.361 193.129 325.031 192.943 324.746C192.758 324.458 192.486 324.233 192.128 324.07C191.77 323.908 191.332 323.827 190.815 323.827H190V322.733H190.815C191.22 322.733 191.574 322.66 191.879 322.514C192.188 322.368 192.428 322.163 192.6 321.898C192.776 321.633 192.864 321.321 192.864 320.963C192.864 320.618 192.787 320.318 192.635 320.063C192.482 319.808 192.267 319.609 191.989 319.467C191.714 319.324 191.389 319.253 191.014 319.253C190.663 319.253 190.331 319.317 190.02 319.447C189.712 319.573 189.46 319.757 189.264 319.999C189.069 320.237 188.963 320.526 188.946 320.864H187.753C187.773 320.33 187.933 319.863 188.235 319.462C188.537 319.057 188.931 318.742 189.418 318.517C189.909 318.292 190.447 318.179 191.034 318.179C191.664 318.179 192.204 318.307 192.655 318.562C193.106 318.814 193.452 319.147 193.694 319.561C193.936 319.975 194.057 320.423 194.057 320.903C194.057 321.477 193.906 321.966 193.604 322.37C193.306 322.774 192.9 323.054 192.386 323.21V323.29C193.029 323.396 193.531 323.669 193.893 324.11C194.254 324.548 194.435 325.089 194.435 325.736C194.435 326.289 194.284 326.786 193.982 327.227C193.684 327.665 193.276 328.009 192.759 328.261C192.242 328.513 191.654 328.639 190.994 328.639ZM199.789 328.639C199.04 328.639 198.402 328.435 197.875 328.028C197.348 327.617 196.945 327.022 196.667 326.243C196.388 325.461 196.249 324.516 196.249 323.409C196.249 322.309 196.388 321.369 196.667 320.59C196.949 319.808 197.353 319.211 197.88 318.8C198.41 318.386 199.047 318.179 199.789 318.179C200.531 318.179 201.166 318.386 201.693 318.8C202.223 319.211 202.628 319.808 202.906 320.59C203.188 321.369 203.329 322.309 203.329 323.409C203.329 324.516 203.19 325.461 202.911 326.243C202.633 327.022 202.23 327.617 201.703 328.028C201.176 328.435 200.538 328.639 199.789 328.639ZM199.789 327.545C200.531 327.545 201.108 327.187 201.519 326.472C201.93 325.756 202.136 324.735 202.136 323.409C202.136 322.527 202.041 321.777 201.852 321.157C201.667 320.537 201.398 320.065 201.047 319.74C200.699 319.415 200.28 319.253 199.789 319.253C199.053 319.253 198.478 319.616 198.064 320.342C197.65 321.064 197.442 322.087 197.442 323.409C197.442 324.291 197.535 325.04 197.721 325.656C197.906 326.273 198.173 326.742 198.521 327.063C198.873 327.385 199.295 327.545 199.789 327.545Z" fill="#333333"/>
<path d="M239.994 328.639C239.338 328.639 238.753 328.527 238.239 328.301C237.729 328.076 237.323 327.763 237.021 327.362C236.723 326.957 236.561 326.488 236.534 325.955H237.787C237.813 326.283 237.926 326.566 238.125 326.805C238.324 327.04 238.584 327.222 238.906 327.352C239.227 327.481 239.583 327.545 239.974 327.545C240.412 327.545 240.8 327.469 241.138 327.317C241.476 327.164 241.741 326.952 241.933 326.68C242.125 326.409 242.222 326.094 242.222 325.736C242.222 325.361 242.129 325.031 241.943 324.746C241.758 324.458 241.486 324.233 241.128 324.07C240.77 323.908 240.332 323.827 239.815 323.827H239V322.733H239.815C240.22 322.733 240.574 322.66 240.879 322.514C241.188 322.368 241.428 322.163 241.6 321.898C241.776 321.633 241.864 321.321 241.864 320.963C241.864 320.618 241.787 320.318 241.635 320.063C241.482 319.808 241.267 319.609 240.989 319.467C240.714 319.324 240.389 319.253 240.014 319.253C239.663 319.253 239.331 319.317 239.02 319.447C238.712 319.573 238.46 319.757 238.264 319.999C238.069 320.237 237.963 320.526 237.946 320.864H236.753C236.773 320.33 236.933 319.863 237.235 319.462C237.537 319.057 237.931 318.742 238.418 318.517C238.909 318.292 239.447 318.179 240.034 318.179C240.664 318.179 241.204 318.307 241.655 318.562C242.106 318.814 242.452 319.147 242.694 319.561C242.936 319.975 243.057 320.423 243.057 320.903C243.057 321.477 242.906 321.966 242.604 322.37C242.306 322.774 241.9 323.054 241.386 323.21V323.29C242.029 323.396 242.531 323.669 242.893 324.11C243.254 324.548 243.435 325.089 243.435 325.736C243.435 326.289 243.284 326.786 242.982 327.227C242.684 327.665 242.276 328.009 241.759 328.261C241.242 328.513 240.654 328.639 239.994 328.639ZM249.048 318.318V328.5H247.815V319.611H247.755L245.269 321.261V320.009L247.815 318.318H249.048Z" fill="#333333"/>
<path d="M292.634 318.318V328.5H291.401V319.611H291.341L288.855 321.261V320.009L291.401 318.318H292.634Z" fill="#AAAAAA"/>
<path d="M336.054 328.5V327.605L339.415 323.926C339.809 323.495 340.134 323.121 340.389 322.803C340.644 322.481 340.833 322.179 340.956 321.898C341.082 321.613 341.145 321.314 341.145 321.003C341.145 320.645 341.059 320.335 340.886 320.073C340.717 319.811 340.485 319.609 340.19 319.467C339.895 319.324 339.564 319.253 339.196 319.253C338.805 319.253 338.464 319.334 338.172 319.496C337.884 319.656 337.66 319.879 337.501 320.168C337.345 320.456 337.267 320.794 337.267 321.182H336.094C336.094 320.585 336.231 320.062 336.506 319.611C336.781 319.16 337.156 318.809 337.63 318.557C338.107 318.305 338.643 318.179 339.236 318.179C339.832 318.179 340.361 318.305 340.822 318.557C341.282 318.809 341.644 319.148 341.906 319.576C342.167 320.004 342.298 320.479 342.298 321.003C342.298 321.377 342.23 321.744 342.094 322.102C341.962 322.456 341.73 322.852 341.398 323.29C341.07 323.724 340.615 324.254 340.031 324.881L337.744 327.327V327.406H342.477V328.5H336.054Z" fill="#AAAAAA"/>
</g>
</g>
<defs>
<clipPath id="clip0_315_2607">
<path d="M27.5 75H363.5V347H27.5V75Z" fill="white"/>
</clipPath>
<clipPath id="clip1_315_2607">
<rect width="336" height="32" fill="white" transform="translate(27.5 75)"/>
</clipPath>
<clipPath id="clip2_315_2607">
<rect width="336" height="48" fill="white" transform="translate(27.5 107)"/>
</clipPath>
<clipPath id="clip3_315_2607">
<rect width="336" height="48" fill="white" transform="translate(27.5 155)"/>
</clipPath>
<clipPath id="clip4_315_2607">
<rect width="336" height="48" fill="white" transform="translate(27.5 203)"/>
</clipPath>
<clipPath id="clip5_315_2607">
<rect width="336" height="48" fill="white" transform="translate(27.5 251)"/>
</clipPath>
<clipPath id="clip6_315_2607">
<rect width="336" height="48" fill="white" transform="translate(27.5 299)"/>
</clipPath>
</defs>
</svg>
