<svg width="49" height="48" viewBox="0 0 49 48" fill="none" xmlns="http://www.w3.org/2000/svg">
<path d="M38.36 40C34.9893 40 31.5333 39.156 27.992 37.468C24.4507 35.78 21.1607 33.41 18.122 30.358C15.0833 27.306 12.72 24.016 11.032 20.488C9.344 16.96 8.5 13.5107 8.5 10.14C8.5 9.52933 8.7 9.02067 9.1 8.614C9.5 8.20733 10 8.00267 10.6 8H15.546C16.09 8 16.5647 8.17133 16.97 8.514C17.3753 8.85667 17.6493 9.296 17.792 9.832L18.784 14.6C18.8773 15.16 18.8607 15.6487 18.734 16.066C18.6073 16.4833 18.3853 16.8253 18.068 17.092L13.68 21.184C14.5013 22.6733 15.4087 24.0573 16.402 25.336C17.3953 26.6147 18.4553 27.826 19.582 28.97C20.742 30.13 21.9913 31.21 23.33 32.21C24.6687 33.2087 26.138 34.1513 27.738 35.038L32.016 30.684C32.3413 30.3333 32.7073 30.102 33.114 29.99C33.5193 29.8793 33.9687 29.8573 34.462 29.924L38.668 30.784C39.212 30.9173 39.6533 31.1913 39.992 31.606C40.3307 32.0207 40.5 32.4953 40.5 33.03V37.9C40.5 38.5 40.296 39 39.888 39.4C39.48 39.8 38.9693 40 38.36 40ZM12.74 19.308L16.58 15.778C16.7067 15.6753 16.7893 15.534 16.828 15.354C16.868 15.174 16.8613 15.0073 16.808 14.854L15.922 10.614C15.87 10.41 15.78 10.2567 15.652 10.154C15.524 10.0513 15.358 10 15.154 10H11.05C10.8967 10 10.7687 10.0513 10.666 10.154C10.5633 10.2567 10.512 10.3847 10.512 10.538C10.5507 11.9047 10.7647 13.3313 11.154 14.818C11.5433 16.3047 12.0707 17.8013 12.74 19.308ZM29.642 35.976C30.994 36.6453 32.434 37.1407 33.962 37.462C35.4927 37.782 36.826 37.9533 37.962 37.976C38.1153 37.976 38.2433 37.9247 38.346 37.822C38.4487 37.7193 38.5 37.592 38.5 37.44V33.424C38.5 33.22 38.4487 33.0533 38.346 32.924C38.2433 32.796 38.09 32.7067 37.886 32.656L34.186 31.898C34.0313 31.846 33.896 31.8393 33.78 31.878C33.6653 31.918 33.544 32.0013 33.416 32.128L29.642 35.976Z" fill="black"/>
</svg>
