<svg width="40" height="40" viewBox="0 0 40 40" fill="none" xmlns="http://www.w3.org/2000/svg">
<path d="M11.6663 24.9999H16.6663C17.1084 24.9999 17.5323 24.8243 17.8449 24.5118C18.1574 24.1992 18.333 23.7753 18.333 23.3333C18.333 22.8912 18.1574 22.4673 17.8449 22.1547C17.5323 21.8422 17.1084 21.6666 16.6663 21.6666H11.6663C11.2243 21.6666 10.8004 21.8422 10.4878 22.1547C10.1753 22.4673 9.99967 22.8912 9.99967 23.3333C9.99967 23.7753 10.1753 24.1992 10.4878 24.5118C10.8004 24.8243 11.2243 24.9999 11.6663 24.9999ZM31.6663 8.33325H8.33301C7.00693 8.33325 5.73516 8.86004 4.79747 9.79772C3.85979 10.7354 3.33301 12.0072 3.33301 13.3333V28.3333C3.33301 29.6593 3.85979 30.9311 4.79747 31.8688C5.73516 32.8065 7.00693 33.3333 8.33301 33.3333H31.6663C32.9924 33.3333 34.2642 32.8065 35.2019 31.8688C36.1396 30.9311 36.6663 29.6593 36.6663 28.3333V13.3333C36.6663 12.0072 36.1396 10.7354 35.2019 9.79772C34.2642 8.86004 32.9924 8.33325 31.6663 8.33325ZM33.333 28.3333C33.333 28.7753 33.1574 29.1992 32.8449 29.5118C32.5323 29.8243 32.1084 29.9999 31.6663 29.9999H8.33301C7.89098 29.9999 7.46706 29.8243 7.1545 29.5118C6.84194 29.1992 6.66634 28.7753 6.66634 28.3333V18.3333H33.333V28.3333ZM33.333 14.9999H6.66634V13.3333C6.66634 12.8912 6.84194 12.4673 7.1545 12.1547C7.46706 11.8422 7.89098 11.6666 8.33301 11.6666H31.6663C32.1084 11.6666 32.5323 11.8422 32.8449 12.1547C33.1574 12.4673 33.333 12.8912 33.333 13.3333V14.9999Z" fill="#9F9F9F"/>
</svg>
