<svg width="80" height="80" viewBox="0 0 80 80" fill="none" xmlns="http://www.w3.org/2000/svg">
<rect width="80" height="80" rx="40" fill="#808080" fill-opacity="0.27"/>
<path d="M45.25 54H48.75V57.5H45.25V54Z" fill="black"/>
<path d="M41.75 48.75H62.75C63.6783 48.75 64.5685 49.1187 65.2249 49.7751C65.8813 50.4315 66.25 51.3217 66.25 52.25V59.25C66.25 60.1783 65.8813 61.0685 65.2249 61.7249C64.5685 62.3813 63.6783 62.75 62.75 62.75H41.75C40.8217 62.75 39.9315 62.3813 39.2751 61.7249C38.6187 61.0685 38.25 60.1783 38.25 59.25V52.25C38.25 51.3217 38.6187 50.4315 39.2751 49.7751C39.9315 49.1187 40.8217 48.75 41.75 48.75ZM62.75 59.25V52.25H41.75V59.25H62.75ZM33 59.25H29.5C22.745 59.25 17.25 53.755 17.25 47V43.5H20.75V47C20.75 51.8247 24.6753 55.75 29.5 55.75H33V59.25ZM59.25 43.5V31.25C59.25 24.495 53.755 19 47 19H34.75V22.5H47C51.8247 22.5 55.75 26.4253 55.75 31.25V43.5H59.25ZM29.5 26V19C29.5 18.0717 29.1313 17.1815 28.4749 16.5251C27.8185 15.8687 26.9283 15.5 26 15.5H15.5V38.25H19V29.5H21.59L25.685 38.25H29.5L25.4225 29.5H26C26.9283 29.5 27.8185 29.1313 28.4749 28.4749C29.1313 27.8185 29.5 26.9283 29.5 26ZM19 19H26V26H19V19Z" fill="black"/>
</svg>
