<svg width="56" height="56" viewBox="0 0 56 56" fill="none" xmlns="http://www.w3.org/2000/svg">
<rect width="56" height="56" rx="28" fill="white"/>
<path d="M21.999 33.834V35C21.999 37.3869 22.9472 39.6761 24.6351 41.364C26.3229 43.0518 28.6121 44 30.999 44C33.386 44 35.6752 43.0518 37.363 41.364C39.0508 39.6761 39.999 37.3869 39.999 35V31.66C38.664 31.1882 37.5388 30.2596 36.8223 29.0384C36.1058 27.8172 35.8441 26.382 36.0834 24.9864C36.3228 23.5909 37.0478 22.3249 38.1303 21.4123C39.2128 20.4996 40.5831 19.999 41.999 19.999C43.4149 19.999 44.7852 20.4996 45.8678 21.4123C46.9503 22.3249 47.6753 23.5909 47.9146 24.9864C48.154 26.382 47.8923 27.8172 47.1757 29.0384C46.4592 30.2596 45.334 31.1882 43.999 31.66V35C43.999 38.4478 42.6294 41.7544 40.1914 44.1924C37.7534 46.6304 34.4468 48 30.999 48C27.5512 48 24.2446 46.6304 21.8066 44.1924C19.3687 41.7544 17.999 38.4478 17.999 35V33.834C15.2025 33.3613 12.6638 31.9134 10.8333 29.7471C9.00271 27.5808 7.99859 24.8362 7.99902 22V12C7.99902 10.9391 8.42045 9.92172 9.1706 9.17157C9.92074 8.42143 10.9382 8 11.999 8H13.999C14.5295 8 15.0382 8.21071 15.4132 8.58579C15.7883 8.96086 15.999 9.46957 15.999 10C15.999 10.5304 15.7883 11.0391 15.4132 11.4142C15.0382 11.7893 14.5295 12 13.999 12H11.999V22C11.999 24.1217 12.8419 26.1566 14.3422 27.6569C15.8425 29.1571 17.8773 30 19.999 30C22.1208 30 24.1556 29.1571 25.6559 27.6569C27.1562 26.1566 27.999 24.1217 27.999 22V12H25.999C25.4686 12 24.9599 11.7893 24.5848 11.4142C24.2097 11.0391 23.999 10.5304 23.999 10C23.999 9.46957 24.2097 8.96086 24.5848 8.58579C24.9599 8.21071 25.4686 8 25.999 8H27.999C29.0599 8 30.0773 8.42143 30.8274 9.17157C31.5776 9.92172 31.999 10.9391 31.999 12V22C31.9995 24.8362 30.9953 27.5808 29.1648 29.7471C27.3342 31.9134 24.7955 33.3613 21.999 33.834ZM41.999 28C42.5295 28 43.0382 27.7893 43.4132 27.4142C43.7883 27.0391 43.999 26.5304 43.999 26C43.999 25.4696 43.7883 24.9609 43.4132 24.5858C43.0382 24.2107 42.5295 24 41.999 24C41.4686 24 40.9599 24.2107 40.5848 24.5858C40.2097 24.9609 39.999 25.4696 39.999 26C39.999 26.5304 40.2097 27.0391 40.5848 27.4142C40.9599 27.7893 41.4686 28 41.999 28Z" fill="#4257CF"/>
</svg>
