<svg width="81" height="81" viewBox="0 0 81 81" fill="none" xmlns="http://www.w3.org/2000/svg">
<rect x="0.5" y="0.5" width="80" height="80" rx="40" fill="#E33629" fill-opacity="0.27"/>
<path d="M40.7332 55.7833L40.4998 56.0167L40.2432 55.7833C29.1598 45.7267 21.8332 39.0767 21.8332 32.3333C21.8332 27.6667 25.3332 24.1667 29.9998 24.1667C33.5932 24.1667 37.0932 26.5 38.3298 29.6733H42.6698C43.9065 26.5 47.4065 24.1667 50.9998 24.1667C55.6665 24.1667 59.1665 27.6667 59.1665 32.3333C59.1665 39.0767 51.8398 45.7267 40.7332 55.7833ZM50.9998 19.5C46.9398 19.5 43.0432 21.39 40.4998 24.3533C37.9565 21.39 34.0598 19.5 29.9998 19.5C22.8132 19.5 17.1665 25.1233 17.1665 32.3333C17.1665 41.13 25.0998 48.34 37.1165 59.2367L40.4998 62.3167L43.8832 59.2367C55.8998 48.34 63.8332 41.13 63.8332 32.3333C63.8332 25.1233 58.1865 19.5 50.9998 19.5Z" fill="#C93024"/>
</svg>
