<svg width="64" height="64" viewBox="0 0 64 64" fill="none" xmlns="http://www.w3.org/2000/svg">
<rect width="64" height="64" rx="32" transform="matrix(-1 0 0 1 64 0)" fill="#4257CF"/>
<path fill-rule="evenodd" clip-rule="evenodd" d="M23.8798 34.12C23.318 33.5575 23.0024 32.795 23.0024 32C23.0024 31.205 23.318 30.4425 23.8798 29.88L35.1918 18.564C35.7546 18.0015 36.5178 17.6856 37.3135 17.6858C37.7075 17.6859 38.0976 17.7636 38.4616 17.9144C38.8256 18.0653 39.1563 18.2864 39.4348 18.565C39.7133 18.8437 39.9343 19.1745 40.0849 19.5386C40.2356 19.9026 40.3131 20.2928 40.3131 20.6868C40.313 21.0808 40.2353 21.4709 40.0844 21.8348C39.9335 22.1988 39.7125 22.5295 39.4338 22.808L30.2438 32L39.4358 41.192C39.7225 41.4687 39.9512 41.7996 40.1086 42.1655C40.266 42.5315 40.3489 42.9251 40.3525 43.3234C40.3562 43.7217 40.2805 44.1168 40.1298 44.4856C39.9791 44.8543 39.7565 45.1894 39.475 45.4712C39.1934 45.753 38.8586 45.9759 38.49 46.1269C38.1214 46.278 37.7264 46.354 37.328 46.3508C36.9297 46.3475 36.536 46.2649 36.1699 46.1079C35.8038 45.9508 35.4727 45.7224 35.1958 45.436L23.8758 34.12H23.8798Z" fill="white"/>
</svg>
