<svg width="49" height="48" viewBox="0 0 49 48" fill="none" xmlns="http://www.w3.org/2000/svg">
<path d="M24.5 44C24.5 44 39.5 32 39.5 19C39.5 10.716 32.784 4 24.5 4C16.216 4 9.5 10.716 9.5 19C9.5 32 24.5 44 24.5 44Z" stroke="black" stroke-width="4" stroke-linejoin="round"/>
<path d="M24.5 25C25.2879 25 26.0681 24.8448 26.7961 24.5433C27.5241 24.2417 28.1855 23.7998 28.7426 23.2426C29.2998 22.6855 29.7417 22.0241 30.0433 21.2961C30.3448 20.5681 30.5 19.7879 30.5 19C30.5 18.2121 30.3448 17.4319 30.0433 16.7039C29.7417 15.9759 29.2998 15.3145 28.7426 14.7574C28.1855 14.2002 27.5241 13.7583 26.7961 13.4567C26.0681 13.1552 25.2879 13 24.5 13C22.9087 13 21.3826 13.6321 20.2574 14.7574C19.1321 15.8826 18.5 17.4087 18.5 19C18.5 20.5913 19.1321 22.1174 20.2574 23.2426C21.3826 24.3679 22.9087 25 24.5 25Z" stroke="black" stroke-width="4" stroke-linejoin="round"/>
</svg>
