<svg width="40" height="40" viewBox="0 0 40 40" fill="none" xmlns="http://www.w3.org/2000/svg">
<path d="M10.0003 36.6667C9.08366 36.6667 8.29921 36.3406 7.64699 35.6884C6.99477 35.0362 6.6681 34.2512 6.66699 33.3334V16.6667C6.66699 15.7501 6.99366 14.9656 7.64699 14.3134C8.30033 13.6612 9.08477 13.3345 10.0003 13.3334H11.667V10.0001C11.667 7.69453 12.4798 5.72953 14.1053 4.10508C15.7309 2.48064 17.6959 1.66786 20.0003 1.66675C22.3048 1.66564 24.2703 2.47842 25.897 4.10508C27.5237 5.73175 28.3359 7.69675 28.3337 10.0001V13.3334H30.0003C30.917 13.3334 31.702 13.6601 32.3553 14.3134C33.0087 14.9668 33.3348 15.7512 33.3337 16.6667V33.3334C33.3337 34.2501 33.0075 35.0351 32.3553 35.6884C31.7031 36.3418 30.9181 36.6679 30.0003 36.6667H10.0003ZM10.0003 33.3334H30.0003V16.6667H10.0003V33.3334ZM20.0003 28.3334C20.917 28.3334 21.702 28.0073 22.3553 27.3551C23.0087 26.7029 23.3348 25.9179 23.3337 25.0001C23.3325 24.0823 23.0064 23.2979 22.3553 22.6468C21.7042 21.9956 20.9192 21.669 20.0003 21.6667C19.0814 21.6645 18.297 21.9912 17.647 22.6468C16.997 23.3023 16.6703 24.0868 16.667 25.0001C16.6637 25.9134 16.9903 26.6984 17.647 27.3551C18.3037 28.0118 19.0881 28.3379 20.0003 28.3334ZM15.0003 13.3334H25.0003V10.0001C25.0003 8.61119 24.5142 7.43064 23.542 6.45842C22.5698 5.48619 21.3892 5.00008 20.0003 5.00008C18.6114 5.00008 17.4309 5.48619 16.4587 6.45842C15.4864 7.43064 15.0003 8.61119 15.0003 10.0001V13.3334Z" fill="#9F9F9F"/>
</svg>
