<svg width="41" height="41" viewBox="0 0 41 41" fill="none" xmlns="http://www.w3.org/2000/svg">
<path fill-rule="evenodd" clip-rule="evenodd" d="M10.1925 2.5932C9.5989 2.26007 8.55255 1.83811 6.92536 1.71255C6.63196 1.69015 6.33875 1.75822 6.08523 1.90759C5.8317 2.05695 5.63005 2.28044 5.50744 2.54792C4.72332 4.22892 3.04574 8.41349 1.74228 15.7508C1.59963 16.5537 1.9003 17.36 2.68186 17.5932C3.30028 17.7769 4.20911 17.9349 5.50574 17.9349C7.12182 17.9349 8.13572 17.6897 8.73534 17.454C9.2598 17.249 9.52544 16.7288 9.59122 16.1702C10.071 12.0518 10.4614 7.92348 10.7623 3.78817C10.7964 3.30386 10.6162 2.83236 10.1925 2.5932ZM19.9249 2.59234C19.3321 2.25922 18.2849 1.83726 16.6586 1.7117C16.3652 1.6893 16.072 1.75737 15.8185 1.90673C15.5649 2.0561 15.3633 2.27958 15.2407 2.54707C14.4557 4.22807 12.7781 8.41263 11.4755 15.7499C11.3329 16.5528 11.6335 17.3592 12.4151 17.5924C13.0327 17.776 13.9415 17.934 15.239 17.934C16.855 17.934 17.8681 17.6889 18.4677 17.4531C18.9922 17.2481 19.2587 16.7279 19.3244 16.1693C19.8039 12.0509 20.1941 7.92262 20.4947 3.78732C20.5297 3.30301 20.3494 2.83151 19.9249 2.59234ZM21.9288 38.4041C22.5224 38.7373 23.5688 39.1592 25.196 39.2839C25.4894 39.3063 25.7826 39.2382 26.0361 39.0889C26.2896 38.9395 26.4913 38.716 26.6139 38.4485C27.398 36.7684 29.0756 32.583 30.3791 25.2465C30.5217 24.4436 30.2211 23.6364 29.4395 23.4041C28.8211 23.2196 27.9122 23.0616 26.6156 23.0616C24.9995 23.0616 23.9856 23.3076 23.386 23.5425C22.8615 23.7475 22.5959 24.2685 22.5301 24.8272C22.0504 28.9453 21.66 33.0733 21.3591 37.2083C21.3249 37.6926 21.5051 38.165 21.9288 38.4041ZM31.662 38.4041C32.2548 38.7373 33.302 39.1592 34.9284 39.2839C35.2218 39.3063 35.515 39.2382 35.7685 39.0889C36.022 38.9395 36.2237 38.716 36.3463 38.4485C37.1313 36.7684 38.8088 32.583 40.1114 25.2465C40.2541 24.4436 39.9534 23.6364 39.1719 23.4041C38.5543 23.2196 37.6455 23.0616 36.348 23.0616C34.7319 23.0616 33.7189 23.3076 33.1192 23.5425C32.5948 23.7475 32.3283 24.2685 32.2625 24.8272C31.7831 28.9453 31.3929 33.0733 31.0923 37.2083C31.0573 37.6926 31.2375 38.165 31.662 38.4041Z" fill="#4257CF"/>
</svg>
