<svg width="28" height="28" viewBox="0 0 28 28" fill="none" xmlns="http://www.w3.org/2000/svg">
<path d="M12.667 20.6667H15.3337V12.6667H12.667V20.6667ZM14.0003 10.0001C14.3781 10.0001 14.695 9.87208 14.951 9.61608C15.207 9.36008 15.3345 9.04364 15.3337 8.66675C15.3328 8.28986 15.2048 7.97341 14.9497 7.71741C14.6945 7.46141 14.3781 7.33341 14.0003 7.33341C13.6225 7.33341 13.3061 7.46141 13.051 7.71741C12.7959 7.97341 12.6679 8.28986 12.667 8.66675C12.6661 9.04364 12.7941 9.36053 13.051 9.61741C13.3079 9.8743 13.6243 10.0019 14.0003 10.0001ZM14.0003 27.3334C12.1559 27.3334 10.4226 26.9832 8.80033 26.2827C7.17811 25.5823 5.76699 24.6325 4.56699 23.4334C3.36699 22.2343 2.41722 20.8232 1.71766 19.2001C1.01811 17.577 0.667883 15.8436 0.666994 14.0001C0.666105 12.1565 1.01633 10.4232 1.71766 8.80008C2.41899 7.17697 3.36877 5.76586 4.56699 4.56675C5.76522 3.36764 7.17633 2.41786 8.80033 1.71741C10.4243 1.01697 12.1577 0.666748 14.0003 0.666748C15.843 0.666748 17.5763 1.01697 19.2003 1.71741C20.8243 2.41786 22.2354 3.36764 23.4337 4.56675C24.6319 5.76586 25.5821 7.17697 26.2843 8.80008C26.9865 10.4232 27.3363 12.1565 27.3337 14.0001C27.331 15.8436 26.9808 17.577 26.283 19.2001C25.5852 20.8232 24.6354 22.2343 23.4337 23.4334C22.2319 24.6325 20.8208 25.5827 19.2003 26.2841C17.5799 26.9854 15.8465 27.3352 14.0003 27.3334ZM14.0003 24.6667C16.9781 24.6667 19.5003 23.6334 21.567 21.5667C23.6337 19.5001 24.667 16.9779 24.667 14.0001C24.667 11.0223 23.6337 8.50008 21.567 6.43341C19.5003 4.36675 16.9781 3.33341 14.0003 3.33341C11.0225 3.33341 8.50033 4.36675 6.43366 6.43341C4.36699 8.50008 3.33366 11.0223 3.33366 14.0001C3.33366 16.9779 4.36699 19.5001 6.43366 21.5667C8.50033 23.6334 11.0225 24.6667 14.0003 24.6667Z" fill="black"/>
</svg>
