<svg width="48" height="48" viewBox="0 0 48 48" fill="none" xmlns="http://www.w3.org/2000/svg">
<path fill-rule="evenodd" clip-rule="evenodd" d="M38 8C39.5304 7.99991 41.003 8.58465 42.1165 9.63457C43.23 10.6845 43.9002 12.1202 43.99 13.648L44 14V34C44.0001 35.5304 43.4153 37.003 42.3654 38.1165C41.3155 39.23 39.8798 39.9002 38.352 39.99L38 40H10C8.46958 40.0001 6.99697 39.4153 5.88348 38.3654C4.76999 37.3155 4.09978 35.8798 4.01 34.352L4 34V14C3.99991 12.4696 4.58465 10.997 5.63457 9.88348C6.68448 8.76999 8.12021 8.09978 9.648 8.01L10 8H38ZM40 20H8V34C8.00006 34.4899 8.17991 34.9627 8.50543 35.3287C8.83095 35.6948 9.2795 35.9287 9.766 35.986L10 36H38C38.4899 35.9999 38.9627 35.8201 39.3287 35.4946C39.6948 35.1691 39.9287 34.7205 39.986 34.234L40 34V20ZM29.414 22.928L33.07 26.586C33.4449 26.9611 33.6556 27.4697 33.6556 28C33.6556 28.5303 33.4449 29.0389 33.07 29.414L29.414 33.07C29.2295 33.261 29.0088 33.4134 28.7648 33.5182C28.5208 33.623 28.2584 33.6782 27.9928 33.6805C27.7272 33.6828 27.4639 33.6322 27.2181 33.5316C26.9723 33.4311 26.749 33.2826 26.5612 33.0948C26.3734 32.907 26.2249 32.6837 26.1244 32.4379C26.0238 32.1921 25.9732 31.9288 25.9755 31.6632C25.9778 31.3976 26.033 31.1352 26.1378 30.8912C26.2426 30.6472 26.395 30.4265 26.586 30.242L26.826 30H18C17.4696 30 16.9609 29.7893 16.5858 29.4142C16.2107 29.0391 16 28.5304 16 28C16 27.4696 16.2107 26.9609 16.5858 26.5858C16.9609 26.2107 17.4696 26 18 26H26.828L26.586 25.758C26.2107 25.383 25.9998 24.8742 25.9996 24.3437C25.9994 23.8132 26.21 23.3043 26.585 22.929C26.96 22.5537 27.4688 22.3428 27.9993 22.3426C28.5298 22.3424 29.0387 22.553 29.414 22.928ZM38 12H10C9.46957 12 8.96086 12.2107 8.58579 12.5858C8.21071 12.9609 8 13.4696 8 14V16H40V14C40 13.4696 39.7893 12.9609 39.4142 12.5858C39.0391 12.2107 38.5304 12 38 12Z" fill="white"/>
</svg>
