<svg width="46" height="30" viewBox="0 0 46 30" fill="none" xmlns="http://www.w3.org/2000/svg">
<path fill-rule="evenodd" clip-rule="evenodd" d="M6 3.81015V6.11425H3.6C2.64522 6.11425 1.72955 6.47838 1.05442 7.12653C0.379285 7.77469 0 8.65377 0 9.5704V25.6991C0 26.6157 0.379285 27.4948 1.05442 28.143C1.72955 28.7911 2.64522 29.1552 3.6 29.1552H36.4C36.8728 29.1552 37.3409 29.0658 37.7777 28.8922C38.2144 28.7185 38.6113 28.4639 38.9456 28.143C39.2799 27.822 39.5451 27.441 39.726 27.0217C39.9069 26.6024 40 26.153 40 25.6991V23.395H42.4C44.384 23.395 46 21.8436 46 19.9388V3.81015C46 1.90543 44.384 0.354004 42.4 0.354004H9.6C7.616 0.354004 6 1.90543 6 3.81015ZM10 4.19417V6.11425H36.4C36.8728 6.11425 37.3409 6.20365 37.7777 6.37734C38.2144 6.55102 38.6113 6.8056 38.9456 7.12653C39.2799 7.44747 39.5451 7.82847 39.726 8.24779C39.9069 8.66711 40 9.11653 40 9.5704V19.5548H42V4.19417H10ZM16 17.6347C16 16.6163 16.4214 15.6395 17.1716 14.9193C17.9217 14.1992 18.9391 13.7946 20 13.7946C21.0609 13.7946 22.0783 14.1992 22.8284 14.9193C23.5786 15.6395 24 16.6163 24 17.6347C24 18.6532 23.5786 19.63 22.8284 20.3502C22.0783 21.0703 21.0609 21.4749 20 21.4749C18.9391 21.4749 17.9217 21.0703 17.1716 20.3502C16.4214 19.63 16 18.6532 16 17.6347Z" fill="#4257CF"/>
</svg>
