<svg width="49" height="48" viewBox="0 0 49 48" fill="none" xmlns="http://www.w3.org/2000/svg">
<path d="M46.295 11.25C46.0791 11.1152 45.8324 11.0376 45.5781 11.0245C45.3239 11.0114 45.0706 11.0632 44.8419 11.175C36.7925 15.1125 31.0438 13.2675 24.9669 11.3212C18.5919 9.27936 11.9825 7.16999 2.85125 11.6287C2.59612 11.7511 2.38081 11.9432 2.23018 12.1827C2.07955 12.4223 1.99976 12.6995 2 12.9825V35.4694C1.99996 35.7239 2.06469 35.9742 2.18807 36.1968C2.31146 36.4194 2.48945 36.6069 2.7053 36.7418C2.92115 36.8766 3.16776 36.9543 3.42192 36.9675C3.67608 36.9808 3.92943 36.9292 4.15813 36.8175C12.2075 32.88 17.9562 34.725 24.0425 36.6712C27.65 37.8244 31.325 39 35.48 39C38.6844 39 42.1794 38.3025 46.1506 36.3637C46.4029 36.2406 46.6155 36.0491 46.7643 35.8111C46.9131 35.5732 46.9922 35.2982 46.9925 35.0175V12.5306C46.9948 12.2754 46.9319 12.0239 46.8098 11.7998C46.6878 11.5757 46.5106 11.3865 46.295 11.25ZM44 34.0631C36.3875 37.47 30.8281 35.6925 24.9575 33.8156C21.35 32.6625 17.675 31.4869 13.52 31.4869C10.6008 31.501 7.71133 32.0738 5.0075 33.1744V13.9369C12.62 10.53 18.1794 12.3075 24.05 14.1844C29.9206 16.0612 35.9637 18 44 14.8294V34.0631ZM24.5 18C23.3133 18 22.1533 18.3519 21.1666 19.0112C20.1799 19.6705 19.4108 20.6075 18.9567 21.7039C18.5026 22.8002 18.3838 24.0066 18.6153 25.1705C18.8468 26.3344 19.4182 27.4035 20.2574 28.2426C21.0965 29.0817 22.1656 29.6532 23.3295 29.8847C24.4933 30.1162 25.6997 29.9974 26.7961 29.5433C27.8925 29.0891 28.8295 28.3201 29.4888 27.3334C30.1481 26.3467 30.5 25.1867 30.5 24C30.5 22.4087 29.8679 20.8826 28.7426 19.7573C27.6174 18.6321 26.0913 18 24.5 18ZM24.5 27C23.9067 27 23.3266 26.824 22.8333 26.4944C22.3399 26.1648 21.9554 25.6962 21.7284 25.148C21.5013 24.5999 21.4419 23.9967 21.5576 23.4147C21.6734 22.8328 21.9591 22.2982 22.3787 21.8787C22.7982 21.4591 23.3328 21.1734 23.9147 21.0576C24.4967 20.9419 25.0999 21.0013 25.6481 21.2283C26.1962 21.4554 26.6648 21.8399 26.9944 22.3333C27.3241 22.8266 27.5 23.4066 27.5 24C27.5 24.7956 27.1839 25.5587 26.6213 26.1213C26.0587 26.6839 25.2956 27 24.5 27ZM11 18V27C11 27.3978 10.842 27.7793 10.5607 28.0606C10.2794 28.342 9.89783 28.5 9.5 28.5C9.10218 28.5 8.72065 28.342 8.43934 28.0606C8.15804 27.7793 8 27.3978 8 27V18C8 17.6022 8.15804 17.2206 8.43934 16.9393C8.72065 16.658 9.10218 16.5 9.5 16.5C9.89783 16.5 10.2794 16.658 10.5607 16.9393C10.842 17.2206 11 17.6022 11 18ZM38 30V21C38 20.6022 38.158 20.2206 38.4393 19.9393C38.7206 19.658 39.1022 19.5 39.5 19.5C39.8978 19.5 40.2794 19.658 40.5607 19.9393C40.842 20.2206 41 20.6022 41 21V30C41 30.3978 40.842 30.7793 40.5607 31.0606C40.2794 31.342 39.8978 31.5 39.5 31.5C39.1022 31.5 38.7206 31.342 38.4393 31.0606C38.158 30.7793 38 30.3978 38 30Z" fill="black"/>
</svg>
