<svg width="48" height="48" viewBox="0 0 48 48" fill="none" xmlns="http://www.w3.org/2000/svg">
<path d="M4.5 9.375C4.5 8.08207 5.01361 6.84209 5.92785 5.92785C6.84209 5.01361 8.08207 4.5 9.375 4.5H29.625C30.9179 4.5 32.1579 5.01361 33.0721 5.92785C33.9864 6.84209 34.5 8.08207 34.5 9.375V28.5H43.5V36.75C43.5 38.5402 42.7888 40.2571 41.523 41.523C40.2571 42.7888 38.5402 43.5 36.75 43.5H11.25C9.45979 43.5 7.7429 42.7888 6.47703 41.523C5.21116 40.2571 4.5 38.5402 4.5 36.75V9.375ZM34.5 40.5H36.75C37.7446 40.5 38.6984 40.1049 39.4016 39.4016C40.1049 38.6984 40.5 37.7446 40.5 36.75V31.5H34.5V40.5ZM9.375 7.5C8.34 7.5 7.5 8.34 7.5 9.375V36.75C7.5 37.7446 7.89509 38.6984 8.59835 39.4016C9.30161 40.1049 10.2554 40.5 11.25 40.5H31.5V9.375C31.5 8.34 30.66 7.5 29.625 7.5H9.375ZM13.5 13.5C13.1022 13.5 12.7206 13.658 12.4393 13.9393C12.158 14.2206 12 14.6022 12 15C12 15.3978 12.158 15.7794 12.4393 16.0607C12.7206 16.342 13.1022 16.5 13.5 16.5H25.5C25.8978 16.5 26.2794 16.342 26.5607 16.0607C26.842 15.7794 27 15.3978 27 15C27 14.6022 26.842 14.2206 26.5607 13.9393C26.2794 13.658 25.8978 13.5 25.5 13.5H13.5ZM12 24C12 23.6022 12.158 23.2206 12.4393 22.9393C12.7206 22.658 13.1022 22.5 13.5 22.5H25.5C25.8978 22.5 26.2794 22.658 26.5607 22.9393C26.842 23.2206 27 23.6022 27 24C27 24.3978 26.842 24.7794 26.5607 25.0607C26.2794 25.342 25.8978 25.5 25.5 25.5H13.5C13.1022 25.5 12.7206 25.342 12.4393 25.0607C12.158 24.7794 12 24.3978 12 24ZM13.5 31.5C13.1022 31.5 12.7206 31.658 12.4393 31.9393C12.158 32.2206 12 32.6022 12 33C12 33.3978 12.158 33.7794 12.4393 34.0607C12.7206 34.342 13.1022 34.5 13.5 34.5H19.5C19.8978 34.5 20.2794 34.342 20.5607 34.0607C20.842 33.7794 21 33.3978 21 33C21 32.6022 20.842 32.2206 20.5607 31.9393C20.2794 31.658 19.8978 31.5 19.5 31.5H13.5Z" fill="white"/>
</svg>
