<svg width="64" height="64" viewBox="0 0 64 64" fill="none" xmlns="http://www.w3.org/2000/svg">
<rect width="64" height="64" rx="32" fill="#4257CF"/>
<path fill-rule="evenodd" clip-rule="evenodd" d="M40.1202 34.12C40.682 33.5575 40.9976 32.795 40.9976 32C40.9976 31.205 40.682 30.4425 40.1202 29.88L28.8082 18.564C28.2454 18.0015 27.4822 17.6856 26.6865 17.6858C26.2925 17.6859 25.9024 17.7636 25.5384 17.9144C25.1744 18.0653 24.8437 18.2864 24.5652 18.565C24.2867 18.8437 24.0657 19.1745 23.9151 19.5386C23.7644 19.9026 23.6869 20.2928 23.6869 20.6868C23.687 21.0808 23.7647 21.4709 23.9156 21.8348C24.0665 22.1988 24.2875 22.5295 24.5662 22.808L33.7562 32L24.5642 41.192C24.2775 41.4687 24.0488 41.7996 23.8914 42.1655C23.734 42.5315 23.6511 42.9251 23.6475 43.3234C23.6438 43.7217 23.7195 44.1168 23.8702 44.4856C24.0209 44.8543 24.2435 45.1894 24.525 45.4712C24.8066 45.753 25.1414 45.9759 25.51 46.1269C25.8786 46.278 26.2736 46.354 26.672 46.3508C27.0703 46.3475 27.464 46.2649 27.8301 46.1079C28.1962 45.9508 28.5273 45.7224 28.8042 45.436L40.1242 34.12H40.1202Z" fill="white"/>
</svg>
