<svg width="16" height="16" viewBox="0 0 16 16" fill="none" xmlns="http://www.w3.org/2000/svg">
<path d="M14.3333 15.1667L9.08333 9.91675C8.66667 10.2501 8.1875 10.514 7.64583 10.7084C7.10417 10.9029 6.52778 11.0001 5.91667 11.0001C4.40278 11.0001 3.12167 10.4756 2.07333 9.42675C1.025 8.37786 0.500556 7.09675 0.5 5.58341C0.499445 4.07008 1.02389 2.78897 2.07333 1.74008C3.12278 0.691193 4.40389 0.166748 5.91667 0.166748C7.42944 0.166748 8.71083 0.691193 9.76083 1.74008C10.8108 2.78897 11.335 4.07008 11.3333 5.58341C11.3333 6.19453 11.2361 6.77091 11.0417 7.31258C10.8472 7.85425 10.5833 8.33342 10.25 8.75008L15.5 14.0001L14.3333 15.1667ZM5.91667 9.33341C6.95833 9.33341 7.84389 8.96897 8.57333 8.24008C9.30278 7.51119 9.66722 6.62564 9.66667 5.58341C9.66611 4.54119 9.30167 3.65591 8.57333 2.92758C7.845 2.19925 6.95944 1.83453 5.91667 1.83341C4.87389 1.8323 3.98861 2.19703 3.26083 2.92758C2.53306 3.65814 2.16833 4.54341 2.16667 5.58341C2.165 6.62341 2.52972 7.50897 3.26083 8.24008C3.99195 8.97119 4.87722 9.33564 5.91667 9.33341Z" fill="#9F9F9F"/>
</svg>
