<svg width="170" height="34" viewBox="0 0 170 34" fill="none" xmlns="http://www.w3.org/2000/svg">
<path d="M8.25225 29.7502L10.5543 19.7981L2.8335 13.1043L13.0335 12.2189L17.0002 2.8335L20.9668 12.2189L31.1668 13.1043L23.446 19.7981L25.7481 29.7502L17.0002 24.4731L8.25225 29.7502Z" fill="#E6FF00"/>
<path d="M42.2522 29.7502L44.5543 19.7981L36.8335 13.1043L47.0335 12.2189L51.0002 2.8335L54.9668 12.2189L65.1668 13.1043L57.446 19.7981L59.7481 29.7502L51.0002 24.4731L42.2522 29.7502Z" fill="#E6FF00"/>
<path d="M76.2522 29.7502L78.5543 19.7981L70.8335 13.1043L81.0335 12.2189L85.0002 2.8335L88.9668 12.2189L99.1668 13.1043L91.446 19.7981L93.7481 29.7502L85.0002 24.4731L76.2522 29.7502Z" fill="#E6FF00"/>
<path d="M110.252 29.7502L112.554 19.7981L104.833 13.1043L115.033 12.2189L119 2.8335L122.967 12.2189L133.167 13.1043L125.446 19.7981L127.748 29.7502L119 24.4731L110.252 29.7502Z" fill="#E6FF00"/>
<path d="M144.252 29.7502L146.554 19.7981L138.833 13.1043L149.033 12.2189L153 2.8335L156.967 12.2189L167.167 13.1043L159.446 19.7981L161.748 29.7502L153 24.4731L144.252 29.7502Z" fill="#E6FF00"/>
</svg>
