<svg width="24" height="22" viewBox="0 0 24 22" fill="none" xmlns="http://www.w3.org/2000/svg">
<path d="M12 0C17.523 0 22 4.477 22 10C22 15.523 17.523 20 12 20C6.477 20 2 15.523 2 10C2 4.477 6.477 0 12 0ZM12 2C9.87827 2 7.84344 2.84285 6.34315 4.34315C4.84285 5.84344 4 7.87827 4 10C4 12.1217 4.84285 14.1566 6.34315 15.6569C7.84344 17.1571 9.87827 18 12 18C14.1217 18 16.1566 17.1571 17.6569 15.6569C19.1571 14.1566 20 12.1217 20 10C20 7.87827 19.1571 5.84344 17.6569 4.34315C16.1566 2.84285 14.1217 2 12 2ZM12 4C12.2449 4.00003 12.4813 4.08996 12.6644 4.25272C12.8474 4.41547 12.9643 4.63975 12.993 4.883L13 5V9.586L15.707 12.293C15.8863 12.473 15.9905 12.7144 15.9982 12.9684C16.006 13.2223 15.9168 13.4697 15.7488 13.6603C15.5807 13.8508 15.3464 13.9703 15.0935 13.9944C14.8406 14.0185 14.588 13.9454 14.387 13.79L14.293 13.707L11.293 10.707C11.1376 10.5514 11.0378 10.349 11.009 10.131L11 10V5C11 4.73478 11.1054 4.48043 11.2929 4.29289C11.4804 4.10536 11.7348 4 12 4Z" fill="black"/>
</svg>
