<svg width="80" height="80" viewBox="0 0 80 80" fill="none" xmlns="http://www.w3.org/2000/svg">
<rect width="80" height="80" rx="40" fill="#FFA500" fill-opacity="0.27"/>
<path d="M39.7668 63.3334L50.3835 35.3334H55.2835L65.9002 63.3334H61.0002L58.4918 56.2168H47.1752L44.6668 63.3334H39.7668ZM21.3335 56.3334L18.0668 53.0668L29.8502 41.2834C28.4891 39.9223 27.2539 38.3667 26.1448 36.6167C25.0357 34.8667 24.0153 32.8834 23.0835 30.6667H27.9835C28.7613 32.1834 29.5391 33.5056 30.3168 34.6334C31.0946 35.7612 32.0279 36.889 33.1168 38.0167C34.4002 36.7334 35.7325 34.9344 37.1138 32.6197C38.4952 30.3051 39.5351 28.0985 40.2335 26.0001H14.3335V21.3334H30.6668V16.6667H35.3335V21.3334H51.6668V26.0001H44.9002C44.0835 28.8001 42.8585 31.6779 41.2252 34.6334C39.5918 37.589 37.9779 39.8445 36.3835 41.4001L41.9835 47.1168L40.2335 51.9001L33.1168 44.6084L21.3335 56.3334ZM48.6335 52.1334H57.0335L52.8335 40.2334L48.6335 52.1334Z" fill="#FFA500"/>
</svg>
