<svg width="40" height="40" viewBox="0 0 40 40" fill="none" xmlns="http://www.w3.org/2000/svg">
<path d="M31.6663 6.66659H28.333V4.99992C28.333 4.55789 28.1574 4.13397 27.8449 3.82141C27.5323 3.50885 27.1084 3.33325 26.6663 3.33325C26.2243 3.33325 25.8004 3.50885 25.4878 3.82141C25.1753 4.13397 24.9997 4.55789 24.9997 4.99992V6.66659H14.9997V4.99992C14.9997 4.55789 14.8241 4.13397 14.5115 3.82141C14.199 3.50885 13.775 3.33325 13.333 3.33325C12.891 3.33325 12.4671 3.50885 12.1545 3.82141C11.8419 4.13397 11.6663 4.55789 11.6663 4.99992V6.66659H8.33301C7.00693 6.66659 5.73516 7.19337 4.79747 8.13105C3.85979 9.06873 3.33301 10.3405 3.33301 11.6666V31.6666C3.33301 32.9927 3.85979 34.2644 4.79747 35.2021C5.73516 36.1398 7.00693 36.6666 8.33301 36.6666H31.6663C32.9924 36.6666 34.2642 36.1398 35.2019 35.2021C36.1396 34.2644 36.6663 32.9927 36.6663 31.6666V11.6666C36.6663 10.3405 36.1396 9.06873 35.2019 8.13105C34.2642 7.19337 32.9924 6.66659 31.6663 6.66659ZM33.333 31.6666C33.333 32.1086 33.1574 32.5325 32.8449 32.8451C32.5323 33.1577 32.1084 33.3333 31.6663 33.3333H8.33301C7.89098 33.3333 7.46706 33.1577 7.1545 32.8451C6.84194 32.5325 6.66634 32.1086 6.66634 31.6666V19.9999H33.333V31.6666ZM33.333 16.6666H6.66634V11.6666C6.66634 11.2246 6.84194 10.8006 7.1545 10.4881C7.46706 10.1755 7.89098 9.99992 8.33301 9.99992H11.6663V11.6666C11.6663 12.1086 11.8419 12.5325 12.1545 12.8451C12.4671 13.1577 12.891 13.3333 13.333 13.3333C13.775 13.3333 14.199 13.1577 14.5115 12.8451C14.8241 12.5325 14.9997 12.1086 14.9997 11.6666V9.99992H24.9997V11.6666C24.9997 12.1086 25.1753 12.5325 25.4878 12.8451C25.8004 13.1577 26.2243 13.3333 26.6663 13.3333C27.1084 13.3333 27.5323 13.1577 27.8449 12.8451C28.1574 12.5325 28.333 12.1086 28.333 11.6666V9.99992H31.6663C32.1084 9.99992 32.5323 10.1755 32.8449 10.4881C33.1574 10.8006 33.333 11.2246 33.333 11.6666V16.6666Z" fill="#9F9F9F"/>
</svg>
