<svg width="128" height="128" viewBox="0 0 128 128" fill="none" xmlns="http://www.w3.org/2000/svg">
<rect width="128" height="128" rx="50" fill="white"/>
<path d="M101.173 105.371L81.8668 28.1174C81.0038 24.6519 79.0047 21.5755 76.1887 19.3792C73.3727 17.1828 69.902 15.9931 66.3308 16H61.6535C58.0849 15.9967 54.618 17.188 51.8052 19.3841C48.9925 21.5802 46.9958 24.6546 46.1334 28.1174L26.8268 105.371C26.4944 106.739 26.7165 108.183 27.4446 109.388C28.1726 110.593 29.3477 111.461 30.7133 111.803C32.079 112.145 33.5246 111.934 34.7348 111.214C35.945 110.495 36.8216 109.326 37.1735 107.963L44.1601 80H83.8401L90.8268 107.963C91.1787 109.326 92.0553 110.495 93.2655 111.214C94.4756 111.934 95.9212 112.145 97.2869 111.803C98.6526 111.461 99.8276 110.593 100.556 109.388C101.284 108.183 101.506 106.739 101.173 105.371ZM46.8268 69.3334L56.4854 30.7094C56.7733 29.5551 57.4389 28.5302 58.3763 27.7976C59.3137 27.0651 60.4691 26.667 61.6588 26.6667H66.3415C67.5311 26.667 68.6865 27.0651 69.6239 27.7976C70.5613 28.5302 71.2269 29.5551 71.5148 30.7094L81.1681 69.3334H46.8268Z" fill="#4257CF"/>
</svg>
