<svg width="48" height="48" viewBox="0 0 48 48" fill="none" xmlns="http://www.w3.org/2000/svg">
<path d="M48.0001 13.6801V10.7801C48.0001 9.61316 47.5366 8.494 46.7114 7.66884C45.8862 6.84368 44.7671 6.38011 43.6001 6.38011H38.2201L37.6801 3.10011C37.5371 2.2295 37.0876 1.43865 36.4129 0.870228C35.7381 0.301801 34.8824 -0.00679091 34.0001 0.000113393H26.7401C25.8613 -0.00201741 25.0104 0.308739 24.3398 0.876744C23.6692 1.44475 23.2226 2.23291 23.0801 3.10011L22.5401 6.38011H17.1601C15.9932 6.38011 14.874 6.84368 14.0489 7.66884C13.2237 8.494 12.7601 9.61316 12.7601 10.7801V13.6801H48.0001ZM26.0001 3.68011C26.0287 3.51594 26.1149 3.36734 26.2432 3.26102C26.3715 3.15471 26.5335 3.09765 26.7001 3.10011H34.0001C34.1668 3.09765 34.3288 3.15471 34.4571 3.26102C34.5854 3.36734 34.6716 3.51594 34.7001 3.68011L35.1601 6.48011H25.5601L26.0001 3.68011ZM31.8801 16.6801V19.6001C31.8801 19.9979 31.7221 20.3795 31.4408 20.6608C31.1595 20.9421 30.778 21.1001 30.3801 21.1001C29.9823 21.1001 29.6008 20.9421 29.3195 20.6608C29.0382 20.3795 28.8801 19.9979 28.8801 19.6001V16.6801H12.7601V26.2001C12.7601 26.7779 12.8739 27.3501 13.0951 27.8839C13.3162 28.4178 13.6403 28.9028 14.0489 29.3114C14.4574 29.72 14.9425 30.0441 15.4763 30.2652C16.0102 30.4863 16.5823 30.6001 17.1601 30.6001H43.6001C44.7671 30.6001 45.8862 30.1365 46.7114 29.3114C47.5366 28.4862 48.0001 27.3671 48.0001 26.2001V16.6801H31.8801ZM34.3801 37.7801L28.3801 39.7801C28.3022 39.7757 28.2248 39.7942 28.1572 39.8333C28.0897 39.8724 28.0351 39.9304 28.0001 40.0001C27.7238 40.5996 27.2808 41.107 26.7241 41.4616C26.1673 41.8162 25.5202 42.0032 24.8601 42.0001H18.0001C17.772 42.0001 17.5533 41.9095 17.392 41.7482C17.2307 41.5869 17.1401 41.3682 17.1401 41.1401C17.1401 40.912 17.2307 40.6933 17.392 40.532C17.5533 40.3707 17.772 40.2801 18.0001 40.2801H24.8801C25.3363 40.2801 25.7738 40.0989 26.0964 39.7763C26.4189 39.4538 26.6001 39.0163 26.6001 38.5601C26.6001 38.1039 26.4189 37.6665 26.0964 37.3439C25.7738 37.0213 25.3363 36.8401 24.8801 36.8401H18.8801C16.8968 35.3222 14.4953 34.4496 12.0001 34.3401H8.50013C7.43006 34.3453 6.37578 34.5986 5.42013 35.0801L0.240134 37.6601C0.176222 37.6939 0.121184 37.7423 0.0794847 37.8014C0.0377855 37.8605 0.0105999 37.9286 0.000133915 38.0001V47.2601C-0.00182263 47.3376 0.017693 47.4141 0.056521 47.4812C0.095349 47.5482 0.151976 47.6032 0.220134 47.6401C0.287022 47.6787 0.362898 47.6991 0.440134 47.6991C0.51737 47.6991 0.593246 47.6787 0.660134 47.6401L6.18013 44.2001C6.39707 44.0603 6.64211 43.9699 6.89787 43.9353C7.15363 43.9008 7.41387 43.9229 7.66013 44.0001C24.7801 49.7801 19.0601 49.8001 38.3601 40.0001C38.4936 39.9348 38.6084 39.8367 38.6938 39.715C38.7792 39.5933 38.8323 39.452 38.8483 39.3042C38.8643 39.1565 38.8425 39.007 38.7852 38.8699C38.7278 38.7328 38.6366 38.6125 38.5201 38.5201C37.9493 38.056 37.2699 37.7446 36.5458 37.6151C35.8216 37.4857 35.0764 37.5425 34.3801 37.7801Z" fill="#4257CF"/>
</svg>
