<svg width="105" height="31" viewBox="0 0 105 31" fill="none" xmlns="http://www.w3.org/2000/svg">
<g clip-path="url(#clip0_323_1232)">
<path d="M7.27156 30.8459V28.7941C7.27156 28.0075 6.79125 27.4946 5.96797 27.4946C5.55641 27.4946 5.11047 27.6314 4.80172 28.076C4.56172 27.6998 4.21875 27.4946 3.70422 27.4946C3.36109 27.4946 3.01828 27.5971 2.74375 27.9733V27.563H2.02344V30.8459H2.74375V29.0334C2.74375 28.4522 3.0525 28.1785 3.53281 28.1785C4.01281 28.1785 4.25313 28.4863 4.25313 29.0334V30.8459H4.97344V29.0334C4.97344 28.4522 5.31625 28.1785 5.76219 28.1785C6.2425 28.1785 6.4825 28.4863 6.4825 29.0334V30.8459H7.27156ZM17.9389 27.563H16.7728V26.5713H16.0525V27.563H15.4008V28.2126H16.0523V29.7174C16.0523 30.4699 16.3611 30.9143 17.1844 30.9143C17.4931 30.9143 17.8359 30.8118 18.0763 30.675L17.8703 30.0594C17.6645 30.1962 17.4245 30.2304 17.253 30.2304C16.91 30.2304 16.7728 30.0253 16.7728 29.6832V28.2126H17.9389V27.563ZM24.0445 27.4945C23.633 27.4945 23.3586 27.6998 23.187 27.9733V27.563H22.4667V30.8459H23.187V28.9993C23.187 28.4522 23.427 28.1444 23.873 28.1444C24.0102 28.1444 24.1817 28.1787 24.3189 28.2128L24.5247 27.5289C24.3875 27.4946 24.1817 27.4946 24.0445 27.4946M14.8177 27.8367C14.4745 27.5973 13.9944 27.4948 13.4798 27.4948C12.6567 27.4948 12.108 27.9051 12.108 28.5549C12.108 29.1021 12.5195 29.4098 13.2398 29.5124L13.5828 29.5467C13.9602 29.6149 14.1659 29.7176 14.1659 29.8886C14.1659 30.1279 13.8916 30.299 13.4113 30.299C12.9309 30.299 12.5537 30.1279 12.3136 29.957L11.9706 30.5041C12.348 30.7777 12.8625 30.9145 13.3769 30.9145C14.3373 30.9145 14.8863 30.47 14.8863 29.8544C14.8863 29.273 14.4403 28.9652 13.7542 28.8627L13.4113 28.8284C13.1025 28.7941 12.8625 28.7259 12.8625 28.5208C12.8625 28.2813 13.1025 28.1445 13.4798 28.1445C13.8916 28.1445 14.3031 28.3154 14.5089 28.4181L14.8177 27.8367ZM33.9575 27.4948C33.5458 27.4948 33.2714 27.7 33.0998 27.9735V27.5632H32.3795V30.8461H33.0998V28.9995C33.0998 28.4524 33.34 28.1445 33.7858 28.1445C33.9231 28.1445 34.0947 28.1788 34.2319 28.2129L34.4377 27.5291C34.3005 27.4948 34.0947 27.4948 33.9575 27.4948ZM24.7648 29.2046C24.7648 30.1963 25.4508 30.9145 26.5142 30.9145C26.9944 30.9145 27.3373 30.8119 27.6803 30.5384L27.3373 29.957C27.063 30.1622 26.7886 30.2647 26.4798 30.2647C25.8967 30.2647 25.4852 29.8544 25.4852 29.2046C25.4852 28.5891 25.8967 28.1787 26.4798 28.1445C26.7886 28.1445 27.063 28.247 27.3373 28.4524L27.6803 27.871C27.3373 27.5973 26.9944 27.4948 26.5142 27.4948C25.4508 27.4948 24.7648 28.2129 24.7648 29.2046ZM31.4192 29.2046V27.5632H30.6989V27.9735C30.4588 27.6658 30.1158 27.4948 29.6698 27.4948C28.7438 27.4948 28.0234 28.2129 28.0234 29.2046C28.0234 30.1963 28.7438 30.9145 29.6698 30.9145C30.15 30.9145 30.4931 30.7436 30.6989 30.4357V30.8461H31.4192V29.2046ZM28.778 29.2046C28.778 28.6233 29.1553 28.1445 29.7727 28.1445C30.3558 28.1445 30.7675 28.5891 30.7675 29.2046C30.7675 29.786 30.3558 30.2647 29.7727 30.2647C29.1553 30.2304 28.778 29.786 28.778 29.2046ZM20.1686 27.4948C19.2081 27.4948 18.522 28.1787 18.522 29.2046C18.522 30.2306 19.208 30.9145 20.2028 30.9145C20.683 30.9145 21.1633 30.7777 21.5406 30.47L21.1975 29.957C20.9231 30.1622 20.5802 30.299 20.2372 30.299C19.7913 30.299 19.3453 30.0938 19.2423 29.5123H21.6778V29.2389C21.7122 28.1787 21.0948 27.4948 20.1686 27.4948ZM20.1684 28.1103C20.6142 28.1103 20.9231 28.384 20.9916 28.897H19.2766C19.3452 28.4524 19.6539 28.1103 20.1684 28.1103ZM38.0391 29.2046V26.2637H37.3187V27.9735C37.0786 27.6658 36.7356 27.4948 36.2897 27.4948C35.3636 27.4948 34.6433 28.2129 34.6433 29.2046C34.6433 30.1963 35.3636 30.9145 36.2897 30.9145C36.77 30.9145 37.113 30.7436 37.3187 30.4357V30.8461H38.0391V29.2046ZM35.398 29.2046C35.398 28.6233 35.7752 28.1445 36.3927 28.1445C36.9758 28.1445 37.3873 28.5891 37.3873 29.2046C37.3873 29.786 36.9758 30.2647 36.3927 30.2647C35.7752 30.2304 35.398 29.786 35.398 29.2046ZM11.3188 29.2046V27.5632H10.5984V27.9735C10.3583 27.6658 10.0153 27.4948 9.56938 27.4948C8.64328 27.4948 7.92297 28.2129 7.92297 29.2046C7.92297 30.1963 8.64328 30.9145 9.56938 30.9145C10.0497 30.9145 10.3927 30.7436 10.5984 30.4357V30.8461H11.3188V29.2046ZM8.64328 29.2046C8.64328 28.6233 9.02063 28.1445 9.63797 28.1445C10.2211 28.1445 10.6328 28.5891 10.6328 29.2046C10.6328 29.786 10.2211 30.2647 9.63797 30.2647C9.02063 30.2304 8.64328 29.786 8.64328 29.2046Z" fill="black"/>
<path d="M14.5781 2.63306H25.3828V21.9887H14.5781V2.63306Z" fill="#FF5F00"/>
<path d="M15.2639 12.311C15.2639 8.37841 17.1161 4.89021 19.963 2.63313C17.8708 0.991688 15.2297 0 12.3484 0C5.52234 0 0 5.50569 0 12.311C0 19.1164 5.52234 24.6221 12.3483 24.6221C15.2295 24.6221 17.8706 23.6304 19.963 21.9888C17.1161 19.766 15.2639 16.2437 15.2639 12.311Z" fill="#EB001B"/>
<path d="M39.96 12.311C39.96 19.1163 34.4377 24.6221 27.6118 24.6221C24.7305 24.6221 22.0894 23.6304 19.9971 21.9888C22.8783 19.7319 24.6963 16.2437 24.6963 12.311C24.6963 8.37841 22.8439 4.89021 19.9971 2.63313C22.0893 0.991688 24.7305 0 27.6118 0C34.4377 0 39.96 5.53996 39.96 12.311Z" fill="#F79E1B"/>
</g>
<g clip-path="url(#clip1_323_1232)">
<path d="M80.8588 12.5946C80.8303 14.8145 82.8633 16.0533 84.3947 16.7899C85.9682 17.5455 86.4967 18.0302 86.4904 18.706C86.4787 19.7402 85.2354 20.1967 84.0719 20.2144C82.042 20.2455 80.8617 19.6735 79.9234 19.241L79.1922 22.6181C80.1336 23.0463 81.8768 23.4196 83.6844 23.436C87.9275 23.436 90.7035 21.3688 90.7186 18.1636C90.7352 14.0957 85.0178 13.8705 85.0568 12.0523C85.0703 11.501 85.6033 10.9127 86.7713 10.7631C87.3494 10.6875 88.9453 10.6297 90.7547 11.452L91.4648 8.18457C90.4918 7.83488 89.2412 7.50004 87.6842 7.50004C83.6904 7.50004 80.8814 9.59546 80.8588 12.5946ZM98.2887 7.78148C97.5139 7.78148 96.8609 8.22755 96.5695 8.91208L90.5084 23.196H94.7484L95.5922 20.8945H100.773L101.263 23.196H105L101.739 7.78148H98.2887ZM98.8818 11.9455L100.105 17.7339H96.7543L98.8818 11.9455ZM75.718 7.78167L72.3758 23.1958H76.4162L79.7568 7.78129L75.718 7.78167ZM69.7408 7.78167L65.5354 18.2732L63.8342 9.35237C63.6346 8.35652 62.8463 7.78148 61.9709 7.78148H55.0963L55 8.2291C56.4113 8.53136 58.0148 9.01888 58.9863 9.54052C59.5809 9.85917 59.7504 10.1377 59.9457 10.8949L63.1678 23.196H67.4375L73.9836 7.78148L69.7408 7.78167Z" fill="url(#paint0_linear_323_1232)"/>
</g>
<defs>
<linearGradient id="paint0_linear_323_1232" x1="2353.7" y1="55.4036" x2="2399.23" y2="-1581.28" gradientUnits="userSpaceOnUse">
<stop stop-color="#222357"/>
<stop offset="1" stop-color="#254AA5"/>
</linearGradient>
<clipPath id="clip0_323_1232">
<rect width="40" height="31" fill="white"/>
</clipPath>
<clipPath id="clip1_323_1232">
<rect width="50" height="16" fill="white" transform="translate(55 7.5)"/>
</clipPath>
</defs>
</svg>
